%TF.GenerationSoftware,KiCad,Pcbnew,(5.1.5)-3*%
%TF.CreationDate,2020-01-27T22:21:35+01:00*%
%TF.ProjectId,HM-LC-Sw1-Pl-DN-R1_OBII,484d2d4c-432d-4537-9731-2d506c2d444e,rev?*%
%TF.SameCoordinates,Original*%
%TF.FileFunction,Soldermask,Bot*%
%TF.FilePolarity,Negative*%
%FSLAX46Y46*%
G04 Gerber Fmt 4.6, Leading zero omitted, Abs format (unit mm)*
G04 Created by KiCad (PCBNEW (5.1.5)-3) date 2020-01-27 22:21:35*
%MOMM*%
%LPD*%
G04 APERTURE LIST*
%ADD10R,1.750000X1.750000*%
%ADD11C,1.750000*%
%ADD12C,0.150000*%
%ADD13R,1.700000X1.300000*%
G04 APERTURE END LIST*
D10*
X155500000Y-97750000D03*
D11*
X155700000Y-101250000D03*
X141700000Y-101250000D03*
X143700000Y-101250000D03*
X145700000Y-101250000D03*
X147700000Y-101250000D03*
X149700000Y-101250000D03*
X151700000Y-101250000D03*
X153700000Y-101250000D03*
D12*
G36*
X142245581Y-98576625D02*
G01*
X142278343Y-98581485D01*
X142310471Y-98589533D01*
X142341656Y-98600691D01*
X142371596Y-98614852D01*
X142400005Y-98631879D01*
X142426608Y-98651609D01*
X142451149Y-98673851D01*
X142473391Y-98698392D01*
X142493121Y-98724995D01*
X142510148Y-98753404D01*
X142524309Y-98783344D01*
X142535467Y-98814529D01*
X142543515Y-98846657D01*
X142548375Y-98879419D01*
X142550000Y-98912500D01*
X142550000Y-99587500D01*
X142548375Y-99620581D01*
X142543515Y-99653343D01*
X142535467Y-99685471D01*
X142524309Y-99716656D01*
X142510148Y-99746596D01*
X142493121Y-99775005D01*
X142473391Y-99801608D01*
X142451149Y-99826149D01*
X142426608Y-99848391D01*
X142400005Y-99868121D01*
X142371596Y-99885148D01*
X142341656Y-99899309D01*
X142310471Y-99910467D01*
X142278343Y-99918515D01*
X142245581Y-99923375D01*
X142212500Y-99925000D01*
X141437500Y-99925000D01*
X141404419Y-99923375D01*
X141371657Y-99918515D01*
X141339529Y-99910467D01*
X141308344Y-99899309D01*
X141278404Y-99885148D01*
X141249995Y-99868121D01*
X141223392Y-99848391D01*
X141198851Y-99826149D01*
X141176609Y-99801608D01*
X141156879Y-99775005D01*
X141139852Y-99746596D01*
X141125691Y-99716656D01*
X141114533Y-99685471D01*
X141106485Y-99653343D01*
X141101625Y-99620581D01*
X141100000Y-99587500D01*
X141100000Y-98912500D01*
X141101625Y-98879419D01*
X141106485Y-98846657D01*
X141114533Y-98814529D01*
X141125691Y-98783344D01*
X141139852Y-98753404D01*
X141156879Y-98724995D01*
X141176609Y-98698392D01*
X141198851Y-98673851D01*
X141223392Y-98651609D01*
X141249995Y-98631879D01*
X141278404Y-98614852D01*
X141308344Y-98600691D01*
X141339529Y-98589533D01*
X141371657Y-98581485D01*
X141404419Y-98576625D01*
X141437500Y-98575000D01*
X142212500Y-98575000D01*
X142245581Y-98576625D01*
G37*
G36*
X143995581Y-98576625D02*
G01*
X144028343Y-98581485D01*
X144060471Y-98589533D01*
X144091656Y-98600691D01*
X144121596Y-98614852D01*
X144150005Y-98631879D01*
X144176608Y-98651609D01*
X144201149Y-98673851D01*
X144223391Y-98698392D01*
X144243121Y-98724995D01*
X144260148Y-98753404D01*
X144274309Y-98783344D01*
X144285467Y-98814529D01*
X144293515Y-98846657D01*
X144298375Y-98879419D01*
X144300000Y-98912500D01*
X144300000Y-99587500D01*
X144298375Y-99620581D01*
X144293515Y-99653343D01*
X144285467Y-99685471D01*
X144274309Y-99716656D01*
X144260148Y-99746596D01*
X144243121Y-99775005D01*
X144223391Y-99801608D01*
X144201149Y-99826149D01*
X144176608Y-99848391D01*
X144150005Y-99868121D01*
X144121596Y-99885148D01*
X144091656Y-99899309D01*
X144060471Y-99910467D01*
X144028343Y-99918515D01*
X143995581Y-99923375D01*
X143962500Y-99925000D01*
X143187500Y-99925000D01*
X143154419Y-99923375D01*
X143121657Y-99918515D01*
X143089529Y-99910467D01*
X143058344Y-99899309D01*
X143028404Y-99885148D01*
X142999995Y-99868121D01*
X142973392Y-99848391D01*
X142948851Y-99826149D01*
X142926609Y-99801608D01*
X142906879Y-99775005D01*
X142889852Y-99746596D01*
X142875691Y-99716656D01*
X142864533Y-99685471D01*
X142856485Y-99653343D01*
X142851625Y-99620581D01*
X142850000Y-99587500D01*
X142850000Y-98912500D01*
X142851625Y-98879419D01*
X142856485Y-98846657D01*
X142864533Y-98814529D01*
X142875691Y-98783344D01*
X142889852Y-98753404D01*
X142906879Y-98724995D01*
X142926609Y-98698392D01*
X142948851Y-98673851D01*
X142973392Y-98651609D01*
X142999995Y-98631879D01*
X143028404Y-98614852D01*
X143058344Y-98600691D01*
X143089529Y-98589533D01*
X143121657Y-98581485D01*
X143154419Y-98576625D01*
X143187500Y-98575000D01*
X143962500Y-98575000D01*
X143995581Y-98576625D01*
G37*
D13*
X157545000Y-92875000D03*
X157545000Y-91375000D03*
X157545000Y-89875000D03*
X157545000Y-88375000D03*
X157545000Y-86875000D03*
X157545000Y-85375000D03*
X157545000Y-83875000D03*
X157545000Y-82375000D03*
X157545000Y-80875000D03*
X140465000Y-92875000D03*
X140465000Y-91375000D03*
X140465000Y-89875000D03*
X140465000Y-88375000D03*
X140455000Y-86875000D03*
X140455000Y-85375000D03*
X140455000Y-83875000D03*
X140455000Y-82375000D03*
X140465000Y-80875000D03*
M02*
