%TF.GenerationSoftware,KiCad,Pcbnew,(5.0.0)*%
%TF.CreationDate,2019-02-01T22:06:09+01:00*%
%TF.ProjectId,HM-LC-Sw1-Pl-DN-R1_OBII,484D2D4C432D5377312D506C2D444E2D,rev?*%
%TF.SameCoordinates,Original*%
%TF.FileFunction,Legend,Top*%
%TF.FilePolarity,Positive*%
%FSLAX46Y46*%
G04 Gerber Fmt 4.6, Leading zero omitted, Abs format (unit mm)*
G04 Created by KiCad (PCBNEW (5.0.0)) date 02/01/19 22:06:09*
%MOMM*%
%LPD*%
G01*
G04 APERTURE LIST*
%ADD10C,0.175000*%
%ADD11C,0.150000*%
%ADD12C,0.120000*%
G04 APERTURE END LIST*
D10*
X156002380Y-95938095D02*
X155526190Y-96204761D01*
X156002380Y-96395238D02*
X155002380Y-96395238D01*
X155002380Y-96090476D01*
X155050000Y-96014285D01*
X155097619Y-95976190D01*
X155192857Y-95938095D01*
X155335714Y-95938095D01*
X155430952Y-95976190D01*
X155478571Y-96014285D01*
X155526190Y-96090476D01*
X155526190Y-96395238D01*
X155954761Y-95633333D02*
X156002380Y-95519047D01*
X156002380Y-95328571D01*
X155954761Y-95252380D01*
X155907142Y-95214285D01*
X155811904Y-95176190D01*
X155716666Y-95176190D01*
X155621428Y-95214285D01*
X155573809Y-95252380D01*
X155526190Y-95328571D01*
X155478571Y-95480952D01*
X155430952Y-95557142D01*
X155383333Y-95595238D01*
X155288095Y-95633333D01*
X155192857Y-95633333D01*
X155097619Y-95595238D01*
X155050000Y-95557142D01*
X155002380Y-95480952D01*
X155002380Y-95290476D01*
X155050000Y-95176190D01*
X155002380Y-94947619D02*
X155002380Y-94490476D01*
X156002380Y-94719047D02*
X155002380Y-94719047D01*
X150202380Y-99857142D02*
X149202380Y-99857142D01*
X149916666Y-99590476D01*
X149202380Y-99323809D01*
X150202380Y-99323809D01*
X150202380Y-98942857D02*
X149202380Y-98942857D01*
X150154761Y-98600000D02*
X150202380Y-98485714D01*
X150202380Y-98295238D01*
X150154761Y-98219047D01*
X150107142Y-98180952D01*
X150011904Y-98142857D01*
X149916666Y-98142857D01*
X149821428Y-98180952D01*
X149773809Y-98219047D01*
X149726190Y-98295238D01*
X149678571Y-98447619D01*
X149630952Y-98523809D01*
X149583333Y-98561904D01*
X149488095Y-98600000D01*
X149392857Y-98600000D01*
X149297619Y-98561904D01*
X149250000Y-98523809D01*
X149202380Y-98447619D01*
X149202380Y-98257142D01*
X149250000Y-98142857D01*
X149202380Y-97647619D02*
X149202380Y-97495238D01*
X149250000Y-97419047D01*
X149345238Y-97342857D01*
X149535714Y-97304761D01*
X149869047Y-97304761D01*
X150059523Y-97342857D01*
X150154761Y-97419047D01*
X150202380Y-97495238D01*
X150202380Y-97647619D01*
X150154761Y-97723809D01*
X150059523Y-97800000D01*
X149869047Y-97838095D01*
X149535714Y-97838095D01*
X149345238Y-97800000D01*
X149250000Y-97723809D01*
X149202380Y-97647619D01*
X148154761Y-99878571D02*
X148202380Y-99764285D01*
X148202380Y-99573809D01*
X148154761Y-99497619D01*
X148107142Y-99459523D01*
X148011904Y-99421428D01*
X147916666Y-99421428D01*
X147821428Y-99459523D01*
X147773809Y-99497619D01*
X147726190Y-99573809D01*
X147678571Y-99726190D01*
X147630952Y-99802380D01*
X147583333Y-99840476D01*
X147488095Y-99878571D01*
X147392857Y-99878571D01*
X147297619Y-99840476D01*
X147250000Y-99802380D01*
X147202380Y-99726190D01*
X147202380Y-99535714D01*
X147250000Y-99421428D01*
X148107142Y-98621428D02*
X148154761Y-98659523D01*
X148202380Y-98773809D01*
X148202380Y-98850000D01*
X148154761Y-98964285D01*
X148059523Y-99040476D01*
X147964285Y-99078571D01*
X147773809Y-99116666D01*
X147630952Y-99116666D01*
X147440476Y-99078571D01*
X147345238Y-99040476D01*
X147250000Y-98964285D01*
X147202380Y-98850000D01*
X147202380Y-98773809D01*
X147250000Y-98659523D01*
X147297619Y-98621428D01*
X148202380Y-98278571D02*
X147202380Y-98278571D01*
X148202380Y-97821428D02*
X147630952Y-98164285D01*
X147202380Y-97821428D02*
X147773809Y-98278571D01*
X146202380Y-99857142D02*
X145202380Y-99857142D01*
X145916666Y-99590476D01*
X145202380Y-99323809D01*
X146202380Y-99323809D01*
X145202380Y-98790476D02*
X145202380Y-98638095D01*
X145250000Y-98561904D01*
X145345238Y-98485714D01*
X145535714Y-98447619D01*
X145869047Y-98447619D01*
X146059523Y-98485714D01*
X146154761Y-98561904D01*
X146202380Y-98638095D01*
X146202380Y-98790476D01*
X146154761Y-98866666D01*
X146059523Y-98942857D01*
X145869047Y-98980952D01*
X145535714Y-98980952D01*
X145345238Y-98942857D01*
X145250000Y-98866666D01*
X145202380Y-98790476D01*
X146154761Y-98142857D02*
X146202380Y-98028571D01*
X146202380Y-97838095D01*
X146154761Y-97761904D01*
X146107142Y-97723809D01*
X146011904Y-97685714D01*
X145916666Y-97685714D01*
X145821428Y-97723809D01*
X145773809Y-97761904D01*
X145726190Y-97838095D01*
X145678571Y-97990476D01*
X145630952Y-98066666D01*
X145583333Y-98104761D01*
X145488095Y-98142857D01*
X145392857Y-98142857D01*
X145297619Y-98104761D01*
X145250000Y-98066666D01*
X145202380Y-97990476D01*
X145202380Y-97800000D01*
X145250000Y-97685714D01*
X146202380Y-97342857D02*
X145202380Y-97342857D01*
X143250000Y-99459523D02*
X143202380Y-99535714D01*
X143202380Y-99650000D01*
X143250000Y-99764285D01*
X143345238Y-99840476D01*
X143440476Y-99878571D01*
X143630952Y-99916666D01*
X143773809Y-99916666D01*
X143964285Y-99878571D01*
X144059523Y-99840476D01*
X144154761Y-99764285D01*
X144202380Y-99650000D01*
X144202380Y-99573809D01*
X144154761Y-99459523D01*
X144107142Y-99421428D01*
X143773809Y-99421428D01*
X143773809Y-99573809D01*
X144202380Y-99078571D02*
X143202380Y-99078571D01*
X144202380Y-98621428D01*
X143202380Y-98621428D01*
X144202380Y-98240476D02*
X143202380Y-98240476D01*
X143202380Y-98050000D01*
X143250000Y-97935714D01*
X143345238Y-97859523D01*
X143440476Y-97821428D01*
X143630952Y-97783333D01*
X143773809Y-97783333D01*
X143964285Y-97821428D01*
X144059523Y-97859523D01*
X144154761Y-97935714D01*
X144202380Y-98050000D01*
X144202380Y-98240476D01*
X141202380Y-100016666D02*
X142202380Y-99750000D01*
X141202380Y-99483333D01*
X142107142Y-98759523D02*
X142154761Y-98797619D01*
X142202380Y-98911904D01*
X142202380Y-98988095D01*
X142154761Y-99102380D01*
X142059523Y-99178571D01*
X141964285Y-99216666D01*
X141773809Y-99254761D01*
X141630952Y-99254761D01*
X141440476Y-99216666D01*
X141345238Y-99178571D01*
X141250000Y-99102380D01*
X141202380Y-98988095D01*
X141202380Y-98911904D01*
X141250000Y-98797619D01*
X141297619Y-98759523D01*
X142107142Y-97959523D02*
X142154761Y-97997619D01*
X142202380Y-98111904D01*
X142202380Y-98188095D01*
X142154761Y-98302380D01*
X142059523Y-98378571D01*
X141964285Y-98416666D01*
X141773809Y-98454761D01*
X141630952Y-98454761D01*
X141440476Y-98416666D01*
X141345238Y-98378571D01*
X141250000Y-98302380D01*
X141202380Y-98188095D01*
X141202380Y-98111904D01*
X141250000Y-97997619D01*
X141297619Y-97959523D01*
D11*
X149310555Y-81700000D02*
G75*
G03X149310555Y-81700000I-360555J0D01*
G01*
X149162132Y-81700000D02*
G75*
G03X149162132Y-81700000I-212132J0D01*
G01*
X149020711Y-81700000D02*
G75*
G03X149020711Y-81700000I-70711J0D01*
G01*
D12*
X156560000Y-97750000D02*
X156560000Y-98810000D01*
X156560000Y-98810000D02*
X155500000Y-98810000D01*
D11*
X148950000Y-82623476D02*
X148790901Y-82782575D01*
X154076524Y-87750000D02*
X153846714Y-87979810D01*
X148950000Y-92876524D02*
X149179810Y-92646714D01*
X143823476Y-87750000D02*
X144053286Y-87520190D01*
X148950000Y-82623476D02*
X149179810Y-82853286D01*
X143823476Y-87750000D02*
X144053286Y-87979810D01*
X148950000Y-92876524D02*
X148720190Y-92646714D01*
X154076524Y-87750000D02*
X153846714Y-87520190D01*
X148790901Y-82782575D02*
X147783274Y-81774948D01*
D12*
X144564520Y-83531729D02*
X144806729Y-83289520D01*
X143843271Y-82810480D02*
X144085480Y-82568271D01*
X152868271Y-92335480D02*
X153110480Y-92093271D01*
X153589520Y-93056729D02*
X153831729Y-92814520D01*
X152553733Y-97240000D02*
X152896267Y-97240000D01*
X152553733Y-98260000D02*
X152896267Y-98260000D01*
D11*
X148138095Y-87402380D02*
X148138095Y-88211904D01*
X148185714Y-88307142D01*
X148233333Y-88354761D01*
X148328571Y-88402380D01*
X148519047Y-88402380D01*
X148614285Y-88354761D01*
X148661904Y-88307142D01*
X148709523Y-88211904D01*
X148709523Y-87402380D01*
X149709523Y-88402380D02*
X149138095Y-88402380D01*
X149423809Y-88402380D02*
X149423809Y-87402380D01*
X149328571Y-87545238D01*
X149233333Y-87640476D01*
X149138095Y-87688095D01*
X142634688Y-85270389D02*
X142634688Y-85337732D01*
X142567344Y-85472419D01*
X142500001Y-85539763D01*
X142365313Y-85607106D01*
X142230626Y-85607106D01*
X142129611Y-85573435D01*
X141961252Y-85472419D01*
X141860237Y-85371404D01*
X141759222Y-85203045D01*
X141725550Y-85102030D01*
X141725550Y-84967343D01*
X141792894Y-84832656D01*
X141860237Y-84765312D01*
X141994924Y-84697969D01*
X142062268Y-84697969D01*
X143375466Y-84664297D02*
X142971405Y-85068358D01*
X143173436Y-84866328D02*
X142466329Y-84159221D01*
X142500001Y-84327580D01*
X142500001Y-84462267D01*
X142466329Y-84563282D01*
X151634687Y-94770388D02*
X151634687Y-94837731D01*
X151567343Y-94972418D01*
X151500000Y-95039762D01*
X151365312Y-95107105D01*
X151230625Y-95107105D01*
X151129610Y-95073434D01*
X150961251Y-94972418D01*
X150860236Y-94871403D01*
X150759221Y-94703044D01*
X150725549Y-94602029D01*
X150725549Y-94467342D01*
X150792893Y-94332655D01*
X150860236Y-94265311D01*
X150994923Y-94197968D01*
X151062267Y-94197968D01*
X151331641Y-93928594D02*
X151331641Y-93861250D01*
X151365312Y-93760235D01*
X151533671Y-93591876D01*
X151634687Y-93558205D01*
X151702030Y-93558205D01*
X151803045Y-93591876D01*
X151870389Y-93659220D01*
X151937732Y-93793907D01*
X151937732Y-94602029D01*
X152375465Y-94164296D01*
X152600000Y-96857142D02*
X152300000Y-96428571D01*
X152085714Y-96857142D02*
X152085714Y-95957142D01*
X152428571Y-95957142D01*
X152514285Y-96000000D01*
X152557142Y-96042857D01*
X152600000Y-96128571D01*
X152600000Y-96257142D01*
X152557142Y-96342857D01*
X152514285Y-96385714D01*
X152428571Y-96428571D01*
X152085714Y-96428571D01*
X153457142Y-96857142D02*
X152942857Y-96857142D01*
X153200000Y-96857142D02*
X153200000Y-95957142D01*
X153114285Y-96085714D01*
X153028571Y-96171428D01*
X152942857Y-96214285D01*
M02*
