%TF.GenerationSoftware,KiCad,Pcbnew,(5.0.0)*%
%TF.CreationDate,2019-02-01T20:37:48+01:00*%
%TF.ProjectId,HM-LC-Sw1-Pl-DN-R1_OBII,484D2D4C432D5377312D506C2D444E2D,rev?*%
%TF.SameCoordinates,Original*%
%TF.FileFunction,Copper,L1,Top,Signal*%
%TF.FilePolarity,Positive*%
%FSLAX46Y46*%
G04 Gerber Fmt 4.6, Leading zero omitted, Abs format (unit mm)*
G04 Created by KiCad (PCBNEW (5.0.0)) date 02/01/19 20:37:48*
%MOMM*%
%LPD*%
G01*
G04 APERTURE LIST*
%ADD10R,1.350000X1.350000*%
%ADD11C,1.350000*%
%ADD12C,0.550000*%
%ADD13C,0.150000*%
%ADD14C,0.950000*%
%ADD15R,1.300000X0.900000*%
%ADD16C,0.800000*%
%ADD17C,0.250000*%
%ADD18C,0.254000*%
G04 APERTURE END LIST*
D10*
X155500000Y-97750000D03*
D11*
X155700000Y-101250000D03*
X141700000Y-101250000D03*
X143700000Y-101250000D03*
X145700000Y-101250000D03*
X147700000Y-101250000D03*
X149700000Y-101250000D03*
X151700000Y-101250000D03*
X153700000Y-101250000D03*
D12*
X147924695Y-82764897D03*
D13*
G36*
X147164555Y-82393666D02*
X147553464Y-82004757D01*
X148684835Y-83136128D01*
X148295926Y-83525037D01*
X147164555Y-82393666D01*
X147164555Y-82393666D01*
G37*
D12*
X147359010Y-83330583D03*
D13*
G36*
X146598870Y-82959352D02*
X146987779Y-82570443D01*
X148119150Y-83701814D01*
X147730241Y-84090723D01*
X146598870Y-82959352D01*
X146598870Y-82959352D01*
G37*
D12*
X146793324Y-83896268D03*
D13*
G36*
X146033184Y-83525037D02*
X146422093Y-83136128D01*
X147553464Y-84267499D01*
X147164555Y-84656408D01*
X146033184Y-83525037D01*
X146033184Y-83525037D01*
G37*
D12*
X146227639Y-84461953D03*
D13*
G36*
X145467499Y-84090722D02*
X145856408Y-83701813D01*
X146987779Y-84833184D01*
X146598870Y-85222093D01*
X145467499Y-84090722D01*
X145467499Y-84090722D01*
G37*
D12*
X145661953Y-85027639D03*
D13*
G36*
X144901813Y-84656408D02*
X145290722Y-84267499D01*
X146422093Y-85398870D01*
X146033184Y-85787779D01*
X144901813Y-84656408D01*
X144901813Y-84656408D01*
G37*
D12*
X145096268Y-85593324D03*
D13*
G36*
X144336128Y-85222093D02*
X144725037Y-84833184D01*
X145856408Y-85964555D01*
X145467499Y-86353464D01*
X144336128Y-85222093D01*
X144336128Y-85222093D01*
G37*
D12*
X144530583Y-86159010D03*
D13*
G36*
X143770443Y-85787779D02*
X144159352Y-85398870D01*
X145290723Y-86530241D01*
X144901814Y-86919150D01*
X143770443Y-85787779D01*
X143770443Y-85787779D01*
G37*
D12*
X143964897Y-86724695D03*
D13*
G36*
X143204757Y-86353464D02*
X143593666Y-85964555D01*
X144725037Y-87095926D01*
X144336128Y-87484835D01*
X143204757Y-86353464D01*
X143204757Y-86353464D01*
G37*
D12*
X143964897Y-88775305D03*
D13*
G36*
X143593666Y-89535445D02*
X143204757Y-89146536D01*
X144336128Y-88015165D01*
X144725037Y-88404074D01*
X143593666Y-89535445D01*
X143593666Y-89535445D01*
G37*
D12*
X144530583Y-89340990D03*
D13*
G36*
X144159352Y-90101130D02*
X143770443Y-89712221D01*
X144901814Y-88580850D01*
X145290723Y-88969759D01*
X144159352Y-90101130D01*
X144159352Y-90101130D01*
G37*
D12*
X145096268Y-89906676D03*
D13*
G36*
X144725037Y-90666816D02*
X144336128Y-90277907D01*
X145467499Y-89146536D01*
X145856408Y-89535445D01*
X144725037Y-90666816D01*
X144725037Y-90666816D01*
G37*
D12*
X145661953Y-90472361D03*
D13*
G36*
X145290722Y-91232501D02*
X144901813Y-90843592D01*
X146033184Y-89712221D01*
X146422093Y-90101130D01*
X145290722Y-91232501D01*
X145290722Y-91232501D01*
G37*
D12*
X146227639Y-91038047D03*
D13*
G36*
X145856408Y-91798187D02*
X145467499Y-91409278D01*
X146598870Y-90277907D01*
X146987779Y-90666816D01*
X145856408Y-91798187D01*
X145856408Y-91798187D01*
G37*
D12*
X146793324Y-91603732D03*
D13*
G36*
X146422093Y-92363872D02*
X146033184Y-91974963D01*
X147164555Y-90843592D01*
X147553464Y-91232501D01*
X146422093Y-92363872D01*
X146422093Y-92363872D01*
G37*
D12*
X147359010Y-92169417D03*
D13*
G36*
X146987779Y-92929557D02*
X146598870Y-92540648D01*
X147730241Y-91409277D01*
X148119150Y-91798186D01*
X146987779Y-92929557D01*
X146987779Y-92929557D01*
G37*
D12*
X147924695Y-92735103D03*
D13*
G36*
X147553464Y-93495243D02*
X147164555Y-93106334D01*
X148295926Y-91974963D01*
X148684835Y-92363872D01*
X147553464Y-93495243D01*
X147553464Y-93495243D01*
G37*
D12*
X149975305Y-92735103D03*
D13*
G36*
X149215165Y-92363872D02*
X149604074Y-91974963D01*
X150735445Y-93106334D01*
X150346536Y-93495243D01*
X149215165Y-92363872D01*
X149215165Y-92363872D01*
G37*
D12*
X150540990Y-92169417D03*
D13*
G36*
X149780850Y-91798186D02*
X150169759Y-91409277D01*
X151301130Y-92540648D01*
X150912221Y-92929557D01*
X149780850Y-91798186D01*
X149780850Y-91798186D01*
G37*
D12*
X151106676Y-91603732D03*
D13*
G36*
X150346536Y-91232501D02*
X150735445Y-90843592D01*
X151866816Y-91974963D01*
X151477907Y-92363872D01*
X150346536Y-91232501D01*
X150346536Y-91232501D01*
G37*
D12*
X151672361Y-91038047D03*
D13*
G36*
X150912221Y-90666816D02*
X151301130Y-90277907D01*
X152432501Y-91409278D01*
X152043592Y-91798187D01*
X150912221Y-90666816D01*
X150912221Y-90666816D01*
G37*
D12*
X152238047Y-90472361D03*
D13*
G36*
X151477907Y-90101130D02*
X151866816Y-89712221D01*
X152998187Y-90843592D01*
X152609278Y-91232501D01*
X151477907Y-90101130D01*
X151477907Y-90101130D01*
G37*
D12*
X152803732Y-89906676D03*
D13*
G36*
X152043592Y-89535445D02*
X152432501Y-89146536D01*
X153563872Y-90277907D01*
X153174963Y-90666816D01*
X152043592Y-89535445D01*
X152043592Y-89535445D01*
G37*
D12*
X153369417Y-89340990D03*
D13*
G36*
X152609277Y-88969759D02*
X152998186Y-88580850D01*
X154129557Y-89712221D01*
X153740648Y-90101130D01*
X152609277Y-88969759D01*
X152609277Y-88969759D01*
G37*
D12*
X153935103Y-88775305D03*
D13*
G36*
X153174963Y-88404074D02*
X153563872Y-88015165D01*
X154695243Y-89146536D01*
X154306334Y-89535445D01*
X153174963Y-88404074D01*
X153174963Y-88404074D01*
G37*
D12*
X153935103Y-86724695D03*
D13*
G36*
X153563872Y-87484835D02*
X153174963Y-87095926D01*
X154306334Y-85964555D01*
X154695243Y-86353464D01*
X153563872Y-87484835D01*
X153563872Y-87484835D01*
G37*
D12*
X153369417Y-86159010D03*
D13*
G36*
X152998186Y-86919150D02*
X152609277Y-86530241D01*
X153740648Y-85398870D01*
X154129557Y-85787779D01*
X152998186Y-86919150D01*
X152998186Y-86919150D01*
G37*
D12*
X152803732Y-85593324D03*
D13*
G36*
X152432501Y-86353464D02*
X152043592Y-85964555D01*
X153174963Y-84833184D01*
X153563872Y-85222093D01*
X152432501Y-86353464D01*
X152432501Y-86353464D01*
G37*
D12*
X152238047Y-85027639D03*
D13*
G36*
X151866816Y-85787779D02*
X151477907Y-85398870D01*
X152609278Y-84267499D01*
X152998187Y-84656408D01*
X151866816Y-85787779D01*
X151866816Y-85787779D01*
G37*
D12*
X151672361Y-84461953D03*
D13*
G36*
X151301130Y-85222093D02*
X150912221Y-84833184D01*
X152043592Y-83701813D01*
X152432501Y-84090722D01*
X151301130Y-85222093D01*
X151301130Y-85222093D01*
G37*
D12*
X151106676Y-83896268D03*
D13*
G36*
X150735445Y-84656408D02*
X150346536Y-84267499D01*
X151477907Y-83136128D01*
X151866816Y-83525037D01*
X150735445Y-84656408D01*
X150735445Y-84656408D01*
G37*
D12*
X150540990Y-83330583D03*
D13*
G36*
X150169759Y-84090723D02*
X149780850Y-83701814D01*
X150912221Y-82570443D01*
X151301130Y-82959352D01*
X150169759Y-84090723D01*
X150169759Y-84090723D01*
G37*
D12*
X149975305Y-82764897D03*
D13*
G36*
X149604074Y-83525037D02*
X149215165Y-83136128D01*
X150346536Y-82004757D01*
X150735445Y-82393666D01*
X149604074Y-83525037D01*
X149604074Y-83525037D01*
G37*
G36*
X145002352Y-81823695D02*
X145025407Y-81827114D01*
X145048016Y-81832778D01*
X145069960Y-81840630D01*
X145091030Y-81850595D01*
X145111021Y-81862577D01*
X145129741Y-81876461D01*
X145147011Y-81892113D01*
X145482887Y-82227989D01*
X145498539Y-82245259D01*
X145512423Y-82263979D01*
X145524405Y-82283970D01*
X145534370Y-82305040D01*
X145542222Y-82326984D01*
X145547886Y-82349593D01*
X145551305Y-82372648D01*
X145552449Y-82395927D01*
X145551305Y-82419206D01*
X145547886Y-82442261D01*
X145542222Y-82464870D01*
X145534370Y-82486814D01*
X145524405Y-82507884D01*
X145512423Y-82527875D01*
X145498539Y-82546595D01*
X145482887Y-82563865D01*
X145076301Y-82970451D01*
X145059031Y-82986103D01*
X145040311Y-82999987D01*
X145020320Y-83011969D01*
X144999250Y-83021934D01*
X144977306Y-83029786D01*
X144954697Y-83035450D01*
X144931642Y-83038869D01*
X144908363Y-83040013D01*
X144885084Y-83038869D01*
X144862029Y-83035450D01*
X144839420Y-83029786D01*
X144817476Y-83021934D01*
X144796406Y-83011969D01*
X144776415Y-82999987D01*
X144757695Y-82986103D01*
X144740425Y-82970451D01*
X144404549Y-82634575D01*
X144388897Y-82617305D01*
X144375013Y-82598585D01*
X144363031Y-82578594D01*
X144353066Y-82557524D01*
X144345214Y-82535580D01*
X144339550Y-82512971D01*
X144336131Y-82489916D01*
X144334987Y-82466637D01*
X144336131Y-82443358D01*
X144339550Y-82420303D01*
X144345214Y-82397694D01*
X144353066Y-82375750D01*
X144363031Y-82354680D01*
X144375013Y-82334689D01*
X144388897Y-82315969D01*
X144404549Y-82298699D01*
X144811135Y-81892113D01*
X144828405Y-81876461D01*
X144847125Y-81862577D01*
X144867116Y-81850595D01*
X144888186Y-81840630D01*
X144910130Y-81832778D01*
X144932739Y-81827114D01*
X144955794Y-81823695D01*
X144979073Y-81822551D01*
X145002352Y-81823695D01*
X145002352Y-81823695D01*
G37*
D14*
X144943718Y-82431282D03*
D13*
G36*
X143764916Y-83061131D02*
X143787971Y-83064550D01*
X143810580Y-83070214D01*
X143832524Y-83078066D01*
X143853594Y-83088031D01*
X143873585Y-83100013D01*
X143892305Y-83113897D01*
X143909575Y-83129549D01*
X144245451Y-83465425D01*
X144261103Y-83482695D01*
X144274987Y-83501415D01*
X144286969Y-83521406D01*
X144296934Y-83542476D01*
X144304786Y-83564420D01*
X144310450Y-83587029D01*
X144313869Y-83610084D01*
X144315013Y-83633363D01*
X144313869Y-83656642D01*
X144310450Y-83679697D01*
X144304786Y-83702306D01*
X144296934Y-83724250D01*
X144286969Y-83745320D01*
X144274987Y-83765311D01*
X144261103Y-83784031D01*
X144245451Y-83801301D01*
X143838865Y-84207887D01*
X143821595Y-84223539D01*
X143802875Y-84237423D01*
X143782884Y-84249405D01*
X143761814Y-84259370D01*
X143739870Y-84267222D01*
X143717261Y-84272886D01*
X143694206Y-84276305D01*
X143670927Y-84277449D01*
X143647648Y-84276305D01*
X143624593Y-84272886D01*
X143601984Y-84267222D01*
X143580040Y-84259370D01*
X143558970Y-84249405D01*
X143538979Y-84237423D01*
X143520259Y-84223539D01*
X143502989Y-84207887D01*
X143167113Y-83872011D01*
X143151461Y-83854741D01*
X143137577Y-83836021D01*
X143125595Y-83816030D01*
X143115630Y-83794960D01*
X143107778Y-83773016D01*
X143102114Y-83750407D01*
X143098695Y-83727352D01*
X143097551Y-83704073D01*
X143098695Y-83680794D01*
X143102114Y-83657739D01*
X143107778Y-83635130D01*
X143115630Y-83613186D01*
X143125595Y-83592116D01*
X143137577Y-83572125D01*
X143151461Y-83553405D01*
X143167113Y-83536135D01*
X143573699Y-83129549D01*
X143590969Y-83113897D01*
X143609689Y-83100013D01*
X143629680Y-83088031D01*
X143650750Y-83078066D01*
X143672694Y-83070214D01*
X143695303Y-83064550D01*
X143718358Y-83061131D01*
X143741637Y-83059987D01*
X143764916Y-83061131D01*
X143764916Y-83061131D01*
G37*
D14*
X143706282Y-83668718D03*
D13*
G36*
X152789916Y-92586131D02*
X152812971Y-92589550D01*
X152835580Y-92595214D01*
X152857524Y-92603066D01*
X152878594Y-92613031D01*
X152898585Y-92625013D01*
X152917305Y-92638897D01*
X152934575Y-92654549D01*
X153270451Y-92990425D01*
X153286103Y-93007695D01*
X153299987Y-93026415D01*
X153311969Y-93046406D01*
X153321934Y-93067476D01*
X153329786Y-93089420D01*
X153335450Y-93112029D01*
X153338869Y-93135084D01*
X153340013Y-93158363D01*
X153338869Y-93181642D01*
X153335450Y-93204697D01*
X153329786Y-93227306D01*
X153321934Y-93249250D01*
X153311969Y-93270320D01*
X153299987Y-93290311D01*
X153286103Y-93309031D01*
X153270451Y-93326301D01*
X152863865Y-93732887D01*
X152846595Y-93748539D01*
X152827875Y-93762423D01*
X152807884Y-93774405D01*
X152786814Y-93784370D01*
X152764870Y-93792222D01*
X152742261Y-93797886D01*
X152719206Y-93801305D01*
X152695927Y-93802449D01*
X152672648Y-93801305D01*
X152649593Y-93797886D01*
X152626984Y-93792222D01*
X152605040Y-93784370D01*
X152583970Y-93774405D01*
X152563979Y-93762423D01*
X152545259Y-93748539D01*
X152527989Y-93732887D01*
X152192113Y-93397011D01*
X152176461Y-93379741D01*
X152162577Y-93361021D01*
X152150595Y-93341030D01*
X152140630Y-93319960D01*
X152132778Y-93298016D01*
X152127114Y-93275407D01*
X152123695Y-93252352D01*
X152122551Y-93229073D01*
X152123695Y-93205794D01*
X152127114Y-93182739D01*
X152132778Y-93160130D01*
X152140630Y-93138186D01*
X152150595Y-93117116D01*
X152162577Y-93097125D01*
X152176461Y-93078405D01*
X152192113Y-93061135D01*
X152598699Y-92654549D01*
X152615969Y-92638897D01*
X152634689Y-92625013D01*
X152654680Y-92613031D01*
X152675750Y-92603066D01*
X152697694Y-92595214D01*
X152720303Y-92589550D01*
X152743358Y-92586131D01*
X152766637Y-92584987D01*
X152789916Y-92586131D01*
X152789916Y-92586131D01*
G37*
D14*
X152731282Y-93193718D03*
D13*
G36*
X154027352Y-91348695D02*
X154050407Y-91352114D01*
X154073016Y-91357778D01*
X154094960Y-91365630D01*
X154116030Y-91375595D01*
X154136021Y-91387577D01*
X154154741Y-91401461D01*
X154172011Y-91417113D01*
X154507887Y-91752989D01*
X154523539Y-91770259D01*
X154537423Y-91788979D01*
X154549405Y-91808970D01*
X154559370Y-91830040D01*
X154567222Y-91851984D01*
X154572886Y-91874593D01*
X154576305Y-91897648D01*
X154577449Y-91920927D01*
X154576305Y-91944206D01*
X154572886Y-91967261D01*
X154567222Y-91989870D01*
X154559370Y-92011814D01*
X154549405Y-92032884D01*
X154537423Y-92052875D01*
X154523539Y-92071595D01*
X154507887Y-92088865D01*
X154101301Y-92495451D01*
X154084031Y-92511103D01*
X154065311Y-92524987D01*
X154045320Y-92536969D01*
X154024250Y-92546934D01*
X154002306Y-92554786D01*
X153979697Y-92560450D01*
X153956642Y-92563869D01*
X153933363Y-92565013D01*
X153910084Y-92563869D01*
X153887029Y-92560450D01*
X153864420Y-92554786D01*
X153842476Y-92546934D01*
X153821406Y-92536969D01*
X153801415Y-92524987D01*
X153782695Y-92511103D01*
X153765425Y-92495451D01*
X153429549Y-92159575D01*
X153413897Y-92142305D01*
X153400013Y-92123585D01*
X153388031Y-92103594D01*
X153378066Y-92082524D01*
X153370214Y-92060580D01*
X153364550Y-92037971D01*
X153361131Y-92014916D01*
X153359987Y-91991637D01*
X153361131Y-91968358D01*
X153364550Y-91945303D01*
X153370214Y-91922694D01*
X153378066Y-91900750D01*
X153388031Y-91879680D01*
X153400013Y-91859689D01*
X153413897Y-91840969D01*
X153429549Y-91823699D01*
X153836135Y-91417113D01*
X153853405Y-91401461D01*
X153872125Y-91387577D01*
X153892116Y-91375595D01*
X153913186Y-91365630D01*
X153935130Y-91357778D01*
X153957739Y-91352114D01*
X153980794Y-91348695D01*
X154004073Y-91347551D01*
X154027352Y-91348695D01*
X154027352Y-91348695D01*
G37*
D14*
X153968718Y-91956282D03*
D13*
G36*
X152160779Y-97276144D02*
X152183834Y-97279563D01*
X152206443Y-97285227D01*
X152228387Y-97293079D01*
X152249457Y-97303044D01*
X152269448Y-97315026D01*
X152288168Y-97328910D01*
X152305438Y-97344562D01*
X152321090Y-97361832D01*
X152334974Y-97380552D01*
X152346956Y-97400543D01*
X152356921Y-97421613D01*
X152364773Y-97443557D01*
X152370437Y-97466166D01*
X152373856Y-97489221D01*
X152375000Y-97512500D01*
X152375000Y-97987500D01*
X152373856Y-98010779D01*
X152370437Y-98033834D01*
X152364773Y-98056443D01*
X152356921Y-98078387D01*
X152346956Y-98099457D01*
X152334974Y-98119448D01*
X152321090Y-98138168D01*
X152305438Y-98155438D01*
X152288168Y-98171090D01*
X152269448Y-98184974D01*
X152249457Y-98196956D01*
X152228387Y-98206921D01*
X152206443Y-98214773D01*
X152183834Y-98220437D01*
X152160779Y-98223856D01*
X152137500Y-98225000D01*
X151562500Y-98225000D01*
X151539221Y-98223856D01*
X151516166Y-98220437D01*
X151493557Y-98214773D01*
X151471613Y-98206921D01*
X151450543Y-98196956D01*
X151430552Y-98184974D01*
X151411832Y-98171090D01*
X151394562Y-98155438D01*
X151378910Y-98138168D01*
X151365026Y-98119448D01*
X151353044Y-98099457D01*
X151343079Y-98078387D01*
X151335227Y-98056443D01*
X151329563Y-98033834D01*
X151326144Y-98010779D01*
X151325000Y-97987500D01*
X151325000Y-97512500D01*
X151326144Y-97489221D01*
X151329563Y-97466166D01*
X151335227Y-97443557D01*
X151343079Y-97421613D01*
X151353044Y-97400543D01*
X151365026Y-97380552D01*
X151378910Y-97361832D01*
X151394562Y-97344562D01*
X151411832Y-97328910D01*
X151430552Y-97315026D01*
X151450543Y-97303044D01*
X151471613Y-97293079D01*
X151493557Y-97285227D01*
X151516166Y-97279563D01*
X151539221Y-97276144D01*
X151562500Y-97275000D01*
X152137500Y-97275000D01*
X152160779Y-97276144D01*
X152160779Y-97276144D01*
G37*
D14*
X151850000Y-97750000D03*
D13*
G36*
X153910779Y-97276144D02*
X153933834Y-97279563D01*
X153956443Y-97285227D01*
X153978387Y-97293079D01*
X153999457Y-97303044D01*
X154019448Y-97315026D01*
X154038168Y-97328910D01*
X154055438Y-97344562D01*
X154071090Y-97361832D01*
X154084974Y-97380552D01*
X154096956Y-97400543D01*
X154106921Y-97421613D01*
X154114773Y-97443557D01*
X154120437Y-97466166D01*
X154123856Y-97489221D01*
X154125000Y-97512500D01*
X154125000Y-97987500D01*
X154123856Y-98010779D01*
X154120437Y-98033834D01*
X154114773Y-98056443D01*
X154106921Y-98078387D01*
X154096956Y-98099457D01*
X154084974Y-98119448D01*
X154071090Y-98138168D01*
X154055438Y-98155438D01*
X154038168Y-98171090D01*
X154019448Y-98184974D01*
X153999457Y-98196956D01*
X153978387Y-98206921D01*
X153956443Y-98214773D01*
X153933834Y-98220437D01*
X153910779Y-98223856D01*
X153887500Y-98225000D01*
X153312500Y-98225000D01*
X153289221Y-98223856D01*
X153266166Y-98220437D01*
X153243557Y-98214773D01*
X153221613Y-98206921D01*
X153200543Y-98196956D01*
X153180552Y-98184974D01*
X153161832Y-98171090D01*
X153144562Y-98155438D01*
X153128910Y-98138168D01*
X153115026Y-98119448D01*
X153103044Y-98099457D01*
X153093079Y-98078387D01*
X153085227Y-98056443D01*
X153079563Y-98033834D01*
X153076144Y-98010779D01*
X153075000Y-97987500D01*
X153075000Y-97512500D01*
X153076144Y-97489221D01*
X153079563Y-97466166D01*
X153085227Y-97443557D01*
X153093079Y-97421613D01*
X153103044Y-97400543D01*
X153115026Y-97380552D01*
X153128910Y-97361832D01*
X153144562Y-97344562D01*
X153161832Y-97328910D01*
X153180552Y-97315026D01*
X153200543Y-97303044D01*
X153221613Y-97293079D01*
X153243557Y-97285227D01*
X153266166Y-97279563D01*
X153289221Y-97276144D01*
X153312500Y-97275000D01*
X153887500Y-97275000D01*
X153910779Y-97276144D01*
X153910779Y-97276144D01*
G37*
D14*
X153600000Y-97750000D03*
D15*
X157545000Y-92875000D03*
X157545000Y-91375000D03*
X157545000Y-89875000D03*
X157545000Y-88375000D03*
X157545000Y-86875000D03*
X157545000Y-85375000D03*
X157545000Y-83875000D03*
X157545000Y-82375000D03*
X157545000Y-80875000D03*
X140465000Y-92875000D03*
X140465000Y-91375000D03*
X140465000Y-89875000D03*
X140465000Y-88375000D03*
X140455000Y-86875000D03*
X140455000Y-85375000D03*
X140455000Y-83875000D03*
X140455000Y-82375000D03*
X140465000Y-80875000D03*
D16*
X148700000Y-96850000D03*
X145100000Y-93250000D03*
X148800000Y-93900000D03*
X149500000Y-84600000D03*
X143425000Y-81850000D03*
X154650000Y-90700000D03*
X153600000Y-95400000D03*
X150300000Y-85750000D03*
X146700000Y-88350000D03*
X151900000Y-88400000D03*
X146000000Y-86900000D03*
D17*
X148700000Y-96850000D02*
X148700000Y-96850000D01*
X145147056Y-93250000D02*
X146793324Y-91603732D01*
X145100000Y-93250000D02*
X145147056Y-93250000D01*
X150850000Y-98900000D02*
X148700000Y-96850000D01*
X153100000Y-98900000D02*
X150850000Y-98900000D01*
X154924991Y-100575001D02*
X153100000Y-98900000D01*
X154925001Y-100575001D02*
X154924991Y-100575001D01*
X155600000Y-101250000D02*
X154925001Y-100575001D01*
X155700000Y-101250000D02*
X155600000Y-101250000D01*
X145700000Y-100050000D02*
X145700000Y-101250000D01*
X147359010Y-92169417D02*
X145700000Y-93800000D01*
X145700000Y-93800000D02*
X145700000Y-100050000D01*
X147950000Y-96000000D02*
X147924695Y-92735103D01*
X147950000Y-98800000D02*
X147950000Y-98550000D01*
X147950000Y-98550000D02*
X147950000Y-96000000D01*
X147950000Y-99600000D02*
X147950000Y-98550000D01*
X149600000Y-101250000D02*
X147950000Y-99600000D01*
X149700000Y-101250000D02*
X149600000Y-101250000D01*
X149975305Y-92735103D02*
X149710141Y-93000267D01*
X149710141Y-93000267D02*
X149699733Y-93000267D01*
X148810408Y-93900000D02*
X149975305Y-92735103D01*
X148800000Y-93900000D02*
X148810408Y-93900000D01*
X149338910Y-83401292D02*
X149975305Y-82764897D01*
X149000000Y-83800000D02*
X149338910Y-83401292D01*
X149500000Y-84600000D02*
X149000000Y-84150000D01*
X149000000Y-84150000D02*
X149000000Y-83800000D01*
X145328338Y-82431282D02*
X146793324Y-83896268D01*
X144943718Y-82431282D02*
X145328338Y-82431282D01*
X147429719Y-84532663D02*
X146793324Y-83896268D01*
X147429719Y-84850879D02*
X147429719Y-84532663D01*
X146616564Y-85664034D02*
X147429719Y-84850879D01*
X146298348Y-85664034D02*
X146616564Y-85664034D01*
X145661953Y-85027639D02*
X146298348Y-85664034D01*
X144537132Y-82024696D02*
X143425000Y-81850000D01*
X144943718Y-82431282D02*
X144537132Y-82024696D01*
X143599696Y-82024696D02*
X143425000Y-81850000D01*
X143425000Y-81850000D02*
X143599696Y-82024696D01*
X154650000Y-91275000D02*
X153968718Y-91956282D01*
X154650000Y-90700000D02*
X154650000Y-91275000D01*
X153721968Y-91956282D02*
X152238047Y-90472361D01*
X153968718Y-91956282D02*
X153721968Y-91956282D01*
X143875000Y-100975000D02*
X143600000Y-101250000D01*
X145434404Y-83668718D02*
X143706282Y-83668718D01*
X146227639Y-84461953D02*
X145434404Y-83668718D01*
X143706282Y-84203338D02*
X143706282Y-83668718D01*
X145096268Y-85593324D02*
X143706282Y-84203338D01*
X152308756Y-91674442D02*
X151672361Y-91038047D01*
X152324696Y-91690382D02*
X152308756Y-91674442D01*
X152324696Y-92787132D02*
X152324696Y-91690382D01*
X152731282Y-93193718D02*
X152324696Y-92787132D01*
X151565291Y-93193718D02*
X150540990Y-92169417D01*
X152731282Y-93193718D02*
X151565291Y-93193718D01*
X141600000Y-101250000D02*
X141600000Y-100600000D01*
X153600000Y-97750000D02*
X155950000Y-97750000D01*
X153600000Y-97750000D02*
X153600000Y-97175000D01*
X153600000Y-97175000D02*
X153600000Y-95400000D01*
X153600000Y-95400000D02*
X153600000Y-95400000D01*
X150384314Y-85750000D02*
X151672361Y-84461953D01*
X150300000Y-85750000D02*
X150384314Y-85750000D01*
X145661953Y-90472361D02*
X146700000Y-89434314D01*
X146700000Y-89434314D02*
X146700000Y-88350000D01*
X146700000Y-88350000D02*
X146700000Y-88350000D01*
X140400010Y-80975000D02*
X140525000Y-80975000D01*
X146100000Y-80975000D02*
X140400010Y-80975000D01*
X147924695Y-82764897D02*
X147550000Y-82350000D01*
X147550000Y-82350000D02*
X146100000Y-80975000D01*
X149500000Y-81200000D02*
X150750000Y-81200000D01*
X147924695Y-82764897D02*
X149500000Y-81200000D01*
X150750000Y-81200000D02*
X156300000Y-86500000D01*
X156300000Y-86500000D02*
X157945000Y-86875000D01*
X150850000Y-88400000D02*
X150850000Y-88400000D01*
X150850000Y-88400000D02*
X151900000Y-88400000D01*
X148750000Y-86300000D02*
X150850000Y-88400000D01*
X147359010Y-83330583D02*
X148750000Y-84700000D01*
X148750000Y-84700000D02*
X148750000Y-86300000D01*
X146000000Y-87350000D02*
X146000000Y-87350000D01*
X146000000Y-89002944D02*
X145096268Y-89906676D01*
X146000000Y-86900000D02*
X146000000Y-89002944D01*
D18*
G36*
X156260000Y-92589250D02*
X156418750Y-92748000D01*
X157190000Y-92748000D01*
X157190000Y-93002000D01*
X156418750Y-93002000D01*
X156260000Y-93160750D01*
X156260000Y-93451310D01*
X156356673Y-93684699D01*
X156535302Y-93863327D01*
X156768691Y-93960000D01*
X157190000Y-93960000D01*
X157190000Y-103290000D01*
X140810000Y-103290000D01*
X140810000Y-102245396D01*
X140847106Y-102282502D01*
X140962459Y-102167149D01*
X141021219Y-102400328D01*
X141513100Y-102572522D01*
X142033434Y-102543375D01*
X142378781Y-102400328D01*
X142437542Y-102167147D01*
X141700000Y-101429605D01*
X141685858Y-101443748D01*
X141506253Y-101264143D01*
X141520395Y-101250000D01*
X141506253Y-101235858D01*
X141685858Y-101056253D01*
X141700000Y-101070395D01*
X141714143Y-101056253D01*
X141893748Y-101235858D01*
X141879605Y-101250000D01*
X142566650Y-101937045D01*
X142589436Y-101992055D01*
X142957945Y-102360564D01*
X143439425Y-102560000D01*
X143960575Y-102560000D01*
X144442055Y-102360564D01*
X144700000Y-102102619D01*
X144957945Y-102360564D01*
X145439425Y-102560000D01*
X145960575Y-102560000D01*
X146442055Y-102360564D01*
X146700000Y-102102619D01*
X146957945Y-102360564D01*
X147439425Y-102560000D01*
X147960575Y-102560000D01*
X148442055Y-102360564D01*
X148700000Y-102102619D01*
X148957945Y-102360564D01*
X149439425Y-102560000D01*
X149960575Y-102560000D01*
X150442055Y-102360564D01*
X150700000Y-102102619D01*
X150957945Y-102360564D01*
X151439425Y-102560000D01*
X151960575Y-102560000D01*
X152442055Y-102360564D01*
X152700000Y-102102619D01*
X152957945Y-102360564D01*
X153439425Y-102560000D01*
X153960575Y-102560000D01*
X154442055Y-102360564D01*
X154700000Y-102102619D01*
X154957945Y-102360564D01*
X155439425Y-102560000D01*
X155960575Y-102560000D01*
X156442055Y-102360564D01*
X156810564Y-101992055D01*
X157010000Y-101510575D01*
X157010000Y-100989425D01*
X156810564Y-100507945D01*
X156477000Y-100174381D01*
X156477000Y-99000000D01*
X156474768Y-98988409D01*
X156632809Y-98882809D01*
X156773157Y-98672765D01*
X156822440Y-98425000D01*
X156822440Y-97075000D01*
X156773157Y-96827235D01*
X156632809Y-96617191D01*
X156422765Y-96476843D01*
X156175000Y-96427560D01*
X154825000Y-96427560D01*
X154577235Y-96476843D01*
X154367191Y-96617191D01*
X154360000Y-96627953D01*
X154360000Y-96103711D01*
X154477431Y-95986280D01*
X154635000Y-95605874D01*
X154635000Y-95194126D01*
X154477431Y-94813720D01*
X154186280Y-94522569D01*
X153805874Y-94365000D01*
X153394126Y-94365000D01*
X153013720Y-94522569D01*
X152722569Y-94813720D01*
X152565000Y-95194126D01*
X152565000Y-95605874D01*
X152722569Y-95986280D01*
X152840001Y-96103712D01*
X152840000Y-96784356D01*
X152805460Y-96807435D01*
X152734698Y-96736673D01*
X152501309Y-96640000D01*
X152135750Y-96640000D01*
X151977000Y-96798750D01*
X151977000Y-97623000D01*
X151997000Y-97623000D01*
X151997000Y-97877000D01*
X151977000Y-97877000D01*
X151977000Y-97897000D01*
X151723000Y-97897000D01*
X151723000Y-97877000D01*
X151703000Y-97877000D01*
X151703000Y-97623000D01*
X151723000Y-97623000D01*
X151723000Y-96798750D01*
X151564250Y-96640000D01*
X151198691Y-96640000D01*
X150965302Y-96736673D01*
X150786673Y-96915301D01*
X150690000Y-97148690D01*
X150690000Y-97464250D01*
X150848748Y-97622998D01*
X150690000Y-97622998D01*
X150690000Y-97697337D01*
X150421201Y-97441040D01*
X150379367Y-94136153D01*
X150594301Y-94093400D01*
X150746787Y-93991511D01*
X152113094Y-93991511D01*
X152113094Y-94216018D01*
X152157600Y-94260524D01*
X152336229Y-94439152D01*
X152569618Y-94535825D01*
X152822236Y-94535824D01*
X153055626Y-94439152D01*
X153314115Y-94180662D01*
X153314115Y-93956156D01*
X152731282Y-93373323D01*
X152113094Y-93991511D01*
X150746787Y-93991511D01*
X150804345Y-93953052D01*
X151193254Y-93564143D01*
X151252083Y-93476101D01*
X151271919Y-93467884D01*
X151353632Y-93386171D01*
X151353632Y-93253400D01*
X151368851Y-93176886D01*
X151389176Y-93197211D01*
X151389175Y-93350628D01*
X151366481Y-93373323D01*
X151389175Y-93350629D01*
X151389175Y-93355382D01*
X151485848Y-93588771D01*
X151664476Y-93767400D01*
X151708982Y-93811906D01*
X151933489Y-93811906D01*
X152551677Y-93193718D01*
X152537535Y-93179576D01*
X152717140Y-92999971D01*
X152731282Y-93014113D01*
X152745425Y-92999971D01*
X152925030Y-93179576D01*
X152910887Y-93193718D01*
X153493720Y-93776551D01*
X153718226Y-93776551D01*
X153976716Y-93518062D01*
X154073388Y-93284672D01*
X154073388Y-93184600D01*
X154272015Y-93145091D01*
X154559110Y-92953260D01*
X154965696Y-92546674D01*
X155112478Y-92327000D01*
X156260000Y-92327000D01*
X156260000Y-92589250D01*
X156260000Y-92589250D01*
G37*
X156260000Y-92589250D02*
X156418750Y-92748000D01*
X157190000Y-92748000D01*
X157190000Y-93002000D01*
X156418750Y-93002000D01*
X156260000Y-93160750D01*
X156260000Y-93451310D01*
X156356673Y-93684699D01*
X156535302Y-93863327D01*
X156768691Y-93960000D01*
X157190000Y-93960000D01*
X157190000Y-103290000D01*
X140810000Y-103290000D01*
X140810000Y-102245396D01*
X140847106Y-102282502D01*
X140962459Y-102167149D01*
X141021219Y-102400328D01*
X141513100Y-102572522D01*
X142033434Y-102543375D01*
X142378781Y-102400328D01*
X142437542Y-102167147D01*
X141700000Y-101429605D01*
X141685858Y-101443748D01*
X141506253Y-101264143D01*
X141520395Y-101250000D01*
X141506253Y-101235858D01*
X141685858Y-101056253D01*
X141700000Y-101070395D01*
X141714143Y-101056253D01*
X141893748Y-101235858D01*
X141879605Y-101250000D01*
X142566650Y-101937045D01*
X142589436Y-101992055D01*
X142957945Y-102360564D01*
X143439425Y-102560000D01*
X143960575Y-102560000D01*
X144442055Y-102360564D01*
X144700000Y-102102619D01*
X144957945Y-102360564D01*
X145439425Y-102560000D01*
X145960575Y-102560000D01*
X146442055Y-102360564D01*
X146700000Y-102102619D01*
X146957945Y-102360564D01*
X147439425Y-102560000D01*
X147960575Y-102560000D01*
X148442055Y-102360564D01*
X148700000Y-102102619D01*
X148957945Y-102360564D01*
X149439425Y-102560000D01*
X149960575Y-102560000D01*
X150442055Y-102360564D01*
X150700000Y-102102619D01*
X150957945Y-102360564D01*
X151439425Y-102560000D01*
X151960575Y-102560000D01*
X152442055Y-102360564D01*
X152700000Y-102102619D01*
X152957945Y-102360564D01*
X153439425Y-102560000D01*
X153960575Y-102560000D01*
X154442055Y-102360564D01*
X154700000Y-102102619D01*
X154957945Y-102360564D01*
X155439425Y-102560000D01*
X155960575Y-102560000D01*
X156442055Y-102360564D01*
X156810564Y-101992055D01*
X157010000Y-101510575D01*
X157010000Y-100989425D01*
X156810564Y-100507945D01*
X156477000Y-100174381D01*
X156477000Y-99000000D01*
X156474768Y-98988409D01*
X156632809Y-98882809D01*
X156773157Y-98672765D01*
X156822440Y-98425000D01*
X156822440Y-97075000D01*
X156773157Y-96827235D01*
X156632809Y-96617191D01*
X156422765Y-96476843D01*
X156175000Y-96427560D01*
X154825000Y-96427560D01*
X154577235Y-96476843D01*
X154367191Y-96617191D01*
X154360000Y-96627953D01*
X154360000Y-96103711D01*
X154477431Y-95986280D01*
X154635000Y-95605874D01*
X154635000Y-95194126D01*
X154477431Y-94813720D01*
X154186280Y-94522569D01*
X153805874Y-94365000D01*
X153394126Y-94365000D01*
X153013720Y-94522569D01*
X152722569Y-94813720D01*
X152565000Y-95194126D01*
X152565000Y-95605874D01*
X152722569Y-95986280D01*
X152840001Y-96103712D01*
X152840000Y-96784356D01*
X152805460Y-96807435D01*
X152734698Y-96736673D01*
X152501309Y-96640000D01*
X152135750Y-96640000D01*
X151977000Y-96798750D01*
X151977000Y-97623000D01*
X151997000Y-97623000D01*
X151997000Y-97877000D01*
X151977000Y-97877000D01*
X151977000Y-97897000D01*
X151723000Y-97897000D01*
X151723000Y-97877000D01*
X151703000Y-97877000D01*
X151703000Y-97623000D01*
X151723000Y-97623000D01*
X151723000Y-96798750D01*
X151564250Y-96640000D01*
X151198691Y-96640000D01*
X150965302Y-96736673D01*
X150786673Y-96915301D01*
X150690000Y-97148690D01*
X150690000Y-97464250D01*
X150848748Y-97622998D01*
X150690000Y-97622998D01*
X150690000Y-97697337D01*
X150421201Y-97441040D01*
X150379367Y-94136153D01*
X150594301Y-94093400D01*
X150746787Y-93991511D01*
X152113094Y-93991511D01*
X152113094Y-94216018D01*
X152157600Y-94260524D01*
X152336229Y-94439152D01*
X152569618Y-94535825D01*
X152822236Y-94535824D01*
X153055626Y-94439152D01*
X153314115Y-94180662D01*
X153314115Y-93956156D01*
X152731282Y-93373323D01*
X152113094Y-93991511D01*
X150746787Y-93991511D01*
X150804345Y-93953052D01*
X151193254Y-93564143D01*
X151252083Y-93476101D01*
X151271919Y-93467884D01*
X151353632Y-93386171D01*
X151353632Y-93253400D01*
X151368851Y-93176886D01*
X151389176Y-93197211D01*
X151389175Y-93350628D01*
X151366481Y-93373323D01*
X151389175Y-93350629D01*
X151389175Y-93355382D01*
X151485848Y-93588771D01*
X151664476Y-93767400D01*
X151708982Y-93811906D01*
X151933489Y-93811906D01*
X152551677Y-93193718D01*
X152537535Y-93179576D01*
X152717140Y-92999971D01*
X152731282Y-93014113D01*
X152745425Y-92999971D01*
X152925030Y-93179576D01*
X152910887Y-93193718D01*
X153493720Y-93776551D01*
X153718226Y-93776551D01*
X153976716Y-93518062D01*
X154073388Y-93284672D01*
X154073388Y-93184600D01*
X154272015Y-93145091D01*
X154559110Y-92953260D01*
X154965696Y-92546674D01*
X155112478Y-92327000D01*
X156260000Y-92327000D01*
X156260000Y-92589250D01*
G36*
X142838720Y-82727431D02*
X143123449Y-82845369D01*
X143123449Y-82906280D01*
X143706282Y-83489113D01*
X143720425Y-83474971D01*
X143900030Y-83654576D01*
X143885887Y-83668718D01*
X143900030Y-83682861D01*
X143720425Y-83862466D01*
X143706282Y-83848323D01*
X143088094Y-84466511D01*
X143088094Y-84691018D01*
X143132600Y-84735524D01*
X143311229Y-84914152D01*
X143544618Y-85010825D01*
X143631779Y-85010825D01*
X143312634Y-85329970D01*
X143241828Y-85435938D01*
X143135857Y-85506746D01*
X142746948Y-85895655D01*
X142606600Y-86105699D01*
X142557317Y-86353464D01*
X142606600Y-86601229D01*
X142626597Y-86631157D01*
X142670050Y-88803811D01*
X142606600Y-88898771D01*
X142557317Y-89146536D01*
X142606600Y-89394301D01*
X142746948Y-89604345D01*
X143135857Y-89993254D01*
X143241828Y-90064062D01*
X143312634Y-90170030D01*
X143701543Y-90558939D01*
X143777085Y-90609415D01*
X143873718Y-90742285D01*
X144022013Y-99244532D01*
X143114753Y-100065386D01*
X142756796Y-99886408D01*
X142709003Y-99873320D01*
X142659839Y-99879517D01*
X142359839Y-99979517D01*
X142310197Y-100010197D01*
X142282667Y-100051399D01*
X142279947Y-100065073D01*
X141886900Y-99927478D01*
X141366566Y-99956625D01*
X141021219Y-100099672D01*
X140962459Y-100332851D01*
X140847106Y-100217498D01*
X140810000Y-100254604D01*
X140810000Y-93972440D01*
X141115000Y-93972440D01*
X141362765Y-93923157D01*
X141572809Y-93782809D01*
X141713157Y-93572765D01*
X141762440Y-93325000D01*
X141762440Y-92425000D01*
X141713157Y-92177235D01*
X141678254Y-92125000D01*
X141713157Y-92072765D01*
X141762440Y-91825000D01*
X141762440Y-90925000D01*
X141713157Y-90677235D01*
X141678254Y-90625000D01*
X141713157Y-90572765D01*
X141762440Y-90325000D01*
X141762440Y-89425000D01*
X141713157Y-89177235D01*
X141678254Y-89125000D01*
X141713157Y-89072765D01*
X141762440Y-88825000D01*
X141762440Y-87925000D01*
X141713157Y-87677235D01*
X141673254Y-87617517D01*
X141703157Y-87572765D01*
X141752440Y-87325000D01*
X141752440Y-86425000D01*
X141703157Y-86177235D01*
X141668254Y-86125000D01*
X141703157Y-86072765D01*
X141752440Y-85825000D01*
X141752440Y-84925000D01*
X141703157Y-84677235D01*
X141668254Y-84625000D01*
X141703157Y-84572765D01*
X141752440Y-84325000D01*
X141752440Y-83830382D01*
X142364175Y-83830382D01*
X142460848Y-84063771D01*
X142639476Y-84242400D01*
X142683982Y-84286906D01*
X142908489Y-84286906D01*
X143526677Y-83668718D01*
X142943844Y-83085885D01*
X142719338Y-83085885D01*
X142460848Y-83344374D01*
X142364176Y-83577764D01*
X142364175Y-83830382D01*
X141752440Y-83830382D01*
X141752440Y-83425000D01*
X141731785Y-83321161D01*
X142656059Y-82544770D01*
X142838720Y-82727431D01*
X142838720Y-82727431D01*
G37*
X142838720Y-82727431D02*
X143123449Y-82845369D01*
X143123449Y-82906280D01*
X143706282Y-83489113D01*
X143720425Y-83474971D01*
X143900030Y-83654576D01*
X143885887Y-83668718D01*
X143900030Y-83682861D01*
X143720425Y-83862466D01*
X143706282Y-83848323D01*
X143088094Y-84466511D01*
X143088094Y-84691018D01*
X143132600Y-84735524D01*
X143311229Y-84914152D01*
X143544618Y-85010825D01*
X143631779Y-85010825D01*
X143312634Y-85329970D01*
X143241828Y-85435938D01*
X143135857Y-85506746D01*
X142746948Y-85895655D01*
X142606600Y-86105699D01*
X142557317Y-86353464D01*
X142606600Y-86601229D01*
X142626597Y-86631157D01*
X142670050Y-88803811D01*
X142606600Y-88898771D01*
X142557317Y-89146536D01*
X142606600Y-89394301D01*
X142746948Y-89604345D01*
X143135857Y-89993254D01*
X143241828Y-90064062D01*
X143312634Y-90170030D01*
X143701543Y-90558939D01*
X143777085Y-90609415D01*
X143873718Y-90742285D01*
X144022013Y-99244532D01*
X143114753Y-100065386D01*
X142756796Y-99886408D01*
X142709003Y-99873320D01*
X142659839Y-99879517D01*
X142359839Y-99979517D01*
X142310197Y-100010197D01*
X142282667Y-100051399D01*
X142279947Y-100065073D01*
X141886900Y-99927478D01*
X141366566Y-99956625D01*
X141021219Y-100099672D01*
X140962459Y-100332851D01*
X140847106Y-100217498D01*
X140810000Y-100254604D01*
X140810000Y-93972440D01*
X141115000Y-93972440D01*
X141362765Y-93923157D01*
X141572809Y-93782809D01*
X141713157Y-93572765D01*
X141762440Y-93325000D01*
X141762440Y-92425000D01*
X141713157Y-92177235D01*
X141678254Y-92125000D01*
X141713157Y-92072765D01*
X141762440Y-91825000D01*
X141762440Y-90925000D01*
X141713157Y-90677235D01*
X141678254Y-90625000D01*
X141713157Y-90572765D01*
X141762440Y-90325000D01*
X141762440Y-89425000D01*
X141713157Y-89177235D01*
X141678254Y-89125000D01*
X141713157Y-89072765D01*
X141762440Y-88825000D01*
X141762440Y-87925000D01*
X141713157Y-87677235D01*
X141673254Y-87617517D01*
X141703157Y-87572765D01*
X141752440Y-87325000D01*
X141752440Y-86425000D01*
X141703157Y-86177235D01*
X141668254Y-86125000D01*
X141703157Y-86072765D01*
X141752440Y-85825000D01*
X141752440Y-84925000D01*
X141703157Y-84677235D01*
X141668254Y-84625000D01*
X141703157Y-84572765D01*
X141752440Y-84325000D01*
X141752440Y-83830382D01*
X142364175Y-83830382D01*
X142460848Y-84063771D01*
X142639476Y-84242400D01*
X142683982Y-84286906D01*
X142908489Y-84286906D01*
X143526677Y-83668718D01*
X142943844Y-83085885D01*
X142719338Y-83085885D01*
X142460848Y-83344374D01*
X142364176Y-83577764D01*
X142364175Y-83830382D01*
X141752440Y-83830382D01*
X141752440Y-83425000D01*
X141731785Y-83321161D01*
X142656059Y-82544770D01*
X142838720Y-82727431D01*
G36*
X145220170Y-83634092D02*
X145143661Y-83649311D01*
X145100116Y-83649311D01*
X145212946Y-83626868D01*
X145220170Y-83634092D01*
X145220170Y-83634092D01*
G37*
X145220170Y-83634092D02*
X145143661Y-83649311D01*
X145100116Y-83649311D01*
X145212946Y-83626868D01*
X145220170Y-83634092D01*
M02*
