%TF.GenerationSoftware,KiCad,Pcbnew,(5.0.0)*%
%TF.CreationDate,2019-02-01T20:37:48+01:00*%
%TF.ProjectId,HM-LC-Sw1-Pl-DN-R1_OBII,484D2D4C432D5377312D506C2D444E2D,rev?*%
%TF.SameCoordinates,Original*%
%TF.FileFunction,Soldermask,Top*%
%TF.FilePolarity,Negative*%
%FSLAX46Y46*%
G04 Gerber Fmt 4.6, Leading zero omitted, Abs format (unit mm)*
G04 Created by KiCad (PCBNEW (5.0.0)) date 02/01/19 20:37:49*
%MOMM*%
%LPD*%
G01*
G04 APERTURE LIST*
%ADD10R,1.750000X1.750000*%
%ADD11C,1.750000*%
%ADD12C,0.950000*%
%ADD13C,0.150000*%
%ADD14C,1.350000*%
%ADD15R,1.700000X1.300000*%
G04 APERTURE END LIST*
D10*
X155500000Y-97750000D03*
D11*
X155700000Y-101250000D03*
X141700000Y-101250000D03*
X143700000Y-101250000D03*
X145700000Y-101250000D03*
X147700000Y-101250000D03*
X149700000Y-101250000D03*
X151700000Y-101250000D03*
X153700000Y-101250000D03*
D12*
X147924695Y-82764897D03*
D13*
G36*
X146881712Y-82393666D02*
X147553464Y-81721914D01*
X148967678Y-83136128D01*
X148295926Y-83807880D01*
X146881712Y-82393666D01*
X146881712Y-82393666D01*
G37*
D12*
X147359010Y-83330583D03*
D13*
G36*
X146316027Y-82959352D02*
X146987779Y-82287600D01*
X148401993Y-83701814D01*
X147730241Y-84373566D01*
X146316027Y-82959352D01*
X146316027Y-82959352D01*
G37*
D12*
X146793324Y-83896268D03*
D13*
G36*
X145750341Y-83525037D02*
X146422093Y-82853285D01*
X147836307Y-84267499D01*
X147164555Y-84939251D01*
X145750341Y-83525037D01*
X145750341Y-83525037D01*
G37*
D12*
X146227639Y-84461953D03*
D13*
G36*
X145184656Y-84090722D02*
X145856408Y-83418970D01*
X147270622Y-84833184D01*
X146598870Y-85504936D01*
X145184656Y-84090722D01*
X145184656Y-84090722D01*
G37*
D12*
X145661953Y-85027639D03*
D13*
G36*
X144618970Y-84656408D02*
X145290722Y-83984656D01*
X146704936Y-85398870D01*
X146033184Y-86070622D01*
X144618970Y-84656408D01*
X144618970Y-84656408D01*
G37*
D12*
X145096268Y-85593324D03*
D13*
G36*
X144053285Y-85222093D02*
X144725037Y-84550341D01*
X146139251Y-85964555D01*
X145467499Y-86636307D01*
X144053285Y-85222093D01*
X144053285Y-85222093D01*
G37*
D12*
X144530583Y-86159010D03*
D13*
G36*
X143487600Y-85787779D02*
X144159352Y-85116027D01*
X145573566Y-86530241D01*
X144901814Y-87201993D01*
X143487600Y-85787779D01*
X143487600Y-85787779D01*
G37*
D12*
X143964897Y-86724695D03*
D13*
G36*
X142921914Y-86353464D02*
X143593666Y-85681712D01*
X145007880Y-87095926D01*
X144336128Y-87767678D01*
X142921914Y-86353464D01*
X142921914Y-86353464D01*
G37*
D12*
X143964897Y-88775305D03*
D13*
G36*
X143593666Y-89818288D02*
X142921914Y-89146536D01*
X144336128Y-87732322D01*
X145007880Y-88404074D01*
X143593666Y-89818288D01*
X143593666Y-89818288D01*
G37*
D12*
X144530583Y-89340990D03*
D13*
G36*
X144159352Y-90383973D02*
X143487600Y-89712221D01*
X144901814Y-88298007D01*
X145573566Y-88969759D01*
X144159352Y-90383973D01*
X144159352Y-90383973D01*
G37*
D12*
X145096268Y-89906676D03*
D13*
G36*
X144725037Y-90949659D02*
X144053285Y-90277907D01*
X145467499Y-88863693D01*
X146139251Y-89535445D01*
X144725037Y-90949659D01*
X144725037Y-90949659D01*
G37*
D12*
X145661953Y-90472361D03*
D13*
G36*
X145290722Y-91515344D02*
X144618970Y-90843592D01*
X146033184Y-89429378D01*
X146704936Y-90101130D01*
X145290722Y-91515344D01*
X145290722Y-91515344D01*
G37*
D12*
X146227639Y-91038047D03*
D13*
G36*
X145856408Y-92081030D02*
X145184656Y-91409278D01*
X146598870Y-89995064D01*
X147270622Y-90666816D01*
X145856408Y-92081030D01*
X145856408Y-92081030D01*
G37*
D12*
X146793324Y-91603732D03*
D13*
G36*
X146422093Y-92646715D02*
X145750341Y-91974963D01*
X147164555Y-90560749D01*
X147836307Y-91232501D01*
X146422093Y-92646715D01*
X146422093Y-92646715D01*
G37*
D12*
X147359010Y-92169417D03*
D13*
G36*
X146987779Y-93212400D02*
X146316027Y-92540648D01*
X147730241Y-91126434D01*
X148401993Y-91798186D01*
X146987779Y-93212400D01*
X146987779Y-93212400D01*
G37*
D12*
X147924695Y-92735103D03*
D13*
G36*
X147553464Y-93778086D02*
X146881712Y-93106334D01*
X148295926Y-91692120D01*
X148967678Y-92363872D01*
X147553464Y-93778086D01*
X147553464Y-93778086D01*
G37*
D12*
X149975305Y-92735103D03*
D13*
G36*
X148932322Y-92363872D02*
X149604074Y-91692120D01*
X151018288Y-93106334D01*
X150346536Y-93778086D01*
X148932322Y-92363872D01*
X148932322Y-92363872D01*
G37*
D12*
X150540990Y-92169417D03*
D13*
G36*
X149498007Y-91798186D02*
X150169759Y-91126434D01*
X151583973Y-92540648D01*
X150912221Y-93212400D01*
X149498007Y-91798186D01*
X149498007Y-91798186D01*
G37*
D12*
X151106676Y-91603732D03*
D13*
G36*
X150063693Y-91232501D02*
X150735445Y-90560749D01*
X152149659Y-91974963D01*
X151477907Y-92646715D01*
X150063693Y-91232501D01*
X150063693Y-91232501D01*
G37*
D12*
X151672361Y-91038047D03*
D13*
G36*
X150629378Y-90666816D02*
X151301130Y-89995064D01*
X152715344Y-91409278D01*
X152043592Y-92081030D01*
X150629378Y-90666816D01*
X150629378Y-90666816D01*
G37*
D12*
X152238047Y-90472361D03*
D13*
G36*
X151195064Y-90101130D02*
X151866816Y-89429378D01*
X153281030Y-90843592D01*
X152609278Y-91515344D01*
X151195064Y-90101130D01*
X151195064Y-90101130D01*
G37*
D12*
X152803732Y-89906676D03*
D13*
G36*
X151760749Y-89535445D02*
X152432501Y-88863693D01*
X153846715Y-90277907D01*
X153174963Y-90949659D01*
X151760749Y-89535445D01*
X151760749Y-89535445D01*
G37*
D12*
X153369417Y-89340990D03*
D13*
G36*
X152326434Y-88969759D02*
X152998186Y-88298007D01*
X154412400Y-89712221D01*
X153740648Y-90383973D01*
X152326434Y-88969759D01*
X152326434Y-88969759D01*
G37*
D12*
X153935103Y-88775305D03*
D13*
G36*
X152892120Y-88404074D02*
X153563872Y-87732322D01*
X154978086Y-89146536D01*
X154306334Y-89818288D01*
X152892120Y-88404074D01*
X152892120Y-88404074D01*
G37*
D12*
X153935103Y-86724695D03*
D13*
G36*
X153563872Y-87767678D02*
X152892120Y-87095926D01*
X154306334Y-85681712D01*
X154978086Y-86353464D01*
X153563872Y-87767678D01*
X153563872Y-87767678D01*
G37*
D12*
X153369417Y-86159010D03*
D13*
G36*
X152998186Y-87201993D02*
X152326434Y-86530241D01*
X153740648Y-85116027D01*
X154412400Y-85787779D01*
X152998186Y-87201993D01*
X152998186Y-87201993D01*
G37*
D12*
X152803732Y-85593324D03*
D13*
G36*
X152432501Y-86636307D02*
X151760749Y-85964555D01*
X153174963Y-84550341D01*
X153846715Y-85222093D01*
X152432501Y-86636307D01*
X152432501Y-86636307D01*
G37*
D12*
X152238047Y-85027639D03*
D13*
G36*
X151866816Y-86070622D02*
X151195064Y-85398870D01*
X152609278Y-83984656D01*
X153281030Y-84656408D01*
X151866816Y-86070622D01*
X151866816Y-86070622D01*
G37*
D12*
X151672361Y-84461953D03*
D13*
G36*
X151301130Y-85504936D02*
X150629378Y-84833184D01*
X152043592Y-83418970D01*
X152715344Y-84090722D01*
X151301130Y-85504936D01*
X151301130Y-85504936D01*
G37*
D12*
X151106676Y-83896268D03*
D13*
G36*
X150735445Y-84939251D02*
X150063693Y-84267499D01*
X151477907Y-82853285D01*
X152149659Y-83525037D01*
X150735445Y-84939251D01*
X150735445Y-84939251D01*
G37*
D12*
X150540990Y-83330583D03*
D13*
G36*
X150169759Y-84373566D02*
X149498007Y-83701814D01*
X150912221Y-82287600D01*
X151583973Y-82959352D01*
X150169759Y-84373566D01*
X150169759Y-84373566D01*
G37*
D12*
X149975305Y-82764897D03*
D13*
G36*
X149604074Y-83807880D02*
X148932322Y-83136128D01*
X150346536Y-81721914D01*
X151018288Y-82393666D01*
X149604074Y-83807880D01*
X149604074Y-83807880D01*
G37*
G36*
X145012154Y-81582755D02*
X145044916Y-81587615D01*
X145077044Y-81595663D01*
X145108229Y-81606821D01*
X145138169Y-81620982D01*
X145166578Y-81638009D01*
X145193181Y-81657739D01*
X145217722Y-81679981D01*
X145695019Y-82157278D01*
X145717261Y-82181819D01*
X145736991Y-82208422D01*
X145754018Y-82236831D01*
X145768179Y-82266771D01*
X145779337Y-82297956D01*
X145787385Y-82330084D01*
X145792245Y-82362846D01*
X145793870Y-82395927D01*
X145792245Y-82429008D01*
X145787385Y-82461770D01*
X145779337Y-82493898D01*
X145768179Y-82525083D01*
X145754018Y-82555023D01*
X145736991Y-82583432D01*
X145717261Y-82610035D01*
X145695019Y-82634576D01*
X145147012Y-83182583D01*
X145122471Y-83204825D01*
X145095868Y-83224555D01*
X145067459Y-83241582D01*
X145037519Y-83255743D01*
X145006334Y-83266901D01*
X144974206Y-83274949D01*
X144941444Y-83279809D01*
X144908363Y-83281434D01*
X144875282Y-83279809D01*
X144842520Y-83274949D01*
X144810392Y-83266901D01*
X144779207Y-83255743D01*
X144749267Y-83241582D01*
X144720858Y-83224555D01*
X144694255Y-83204825D01*
X144669714Y-83182583D01*
X144192417Y-82705286D01*
X144170175Y-82680745D01*
X144150445Y-82654142D01*
X144133418Y-82625733D01*
X144119257Y-82595793D01*
X144108099Y-82564608D01*
X144100051Y-82532480D01*
X144095191Y-82499718D01*
X144093566Y-82466637D01*
X144095191Y-82433556D01*
X144100051Y-82400794D01*
X144108099Y-82368666D01*
X144119257Y-82337481D01*
X144133418Y-82307541D01*
X144150445Y-82279132D01*
X144170175Y-82252529D01*
X144192417Y-82227988D01*
X144740424Y-81679981D01*
X144764965Y-81657739D01*
X144791568Y-81638009D01*
X144819977Y-81620982D01*
X144849917Y-81606821D01*
X144881102Y-81595663D01*
X144913230Y-81587615D01*
X144945992Y-81582755D01*
X144979073Y-81581130D01*
X145012154Y-81582755D01*
X145012154Y-81582755D01*
G37*
D14*
X144943718Y-82431282D03*
D13*
G36*
X143774718Y-82820191D02*
X143807480Y-82825051D01*
X143839608Y-82833099D01*
X143870793Y-82844257D01*
X143900733Y-82858418D01*
X143929142Y-82875445D01*
X143955745Y-82895175D01*
X143980286Y-82917417D01*
X144457583Y-83394714D01*
X144479825Y-83419255D01*
X144499555Y-83445858D01*
X144516582Y-83474267D01*
X144530743Y-83504207D01*
X144541901Y-83535392D01*
X144549949Y-83567520D01*
X144554809Y-83600282D01*
X144556434Y-83633363D01*
X144554809Y-83666444D01*
X144549949Y-83699206D01*
X144541901Y-83731334D01*
X144530743Y-83762519D01*
X144516582Y-83792459D01*
X144499555Y-83820868D01*
X144479825Y-83847471D01*
X144457583Y-83872012D01*
X143909576Y-84420019D01*
X143885035Y-84442261D01*
X143858432Y-84461991D01*
X143830023Y-84479018D01*
X143800083Y-84493179D01*
X143768898Y-84504337D01*
X143736770Y-84512385D01*
X143704008Y-84517245D01*
X143670927Y-84518870D01*
X143637846Y-84517245D01*
X143605084Y-84512385D01*
X143572956Y-84504337D01*
X143541771Y-84493179D01*
X143511831Y-84479018D01*
X143483422Y-84461991D01*
X143456819Y-84442261D01*
X143432278Y-84420019D01*
X142954981Y-83942722D01*
X142932739Y-83918181D01*
X142913009Y-83891578D01*
X142895982Y-83863169D01*
X142881821Y-83833229D01*
X142870663Y-83802044D01*
X142862615Y-83769916D01*
X142857755Y-83737154D01*
X142856130Y-83704073D01*
X142857755Y-83670992D01*
X142862615Y-83638230D01*
X142870663Y-83606102D01*
X142881821Y-83574917D01*
X142895982Y-83544977D01*
X142913009Y-83516568D01*
X142932739Y-83489965D01*
X142954981Y-83465424D01*
X143502988Y-82917417D01*
X143527529Y-82895175D01*
X143554132Y-82875445D01*
X143582541Y-82858418D01*
X143612481Y-82844257D01*
X143643666Y-82833099D01*
X143675794Y-82825051D01*
X143708556Y-82820191D01*
X143741637Y-82818566D01*
X143774718Y-82820191D01*
X143774718Y-82820191D01*
G37*
D14*
X143706282Y-83668718D03*
D13*
G36*
X152799718Y-92345191D02*
X152832480Y-92350051D01*
X152864608Y-92358099D01*
X152895793Y-92369257D01*
X152925733Y-92383418D01*
X152954142Y-92400445D01*
X152980745Y-92420175D01*
X153005286Y-92442417D01*
X153482583Y-92919714D01*
X153504825Y-92944255D01*
X153524555Y-92970858D01*
X153541582Y-92999267D01*
X153555743Y-93029207D01*
X153566901Y-93060392D01*
X153574949Y-93092520D01*
X153579809Y-93125282D01*
X153581434Y-93158363D01*
X153579809Y-93191444D01*
X153574949Y-93224206D01*
X153566901Y-93256334D01*
X153555743Y-93287519D01*
X153541582Y-93317459D01*
X153524555Y-93345868D01*
X153504825Y-93372471D01*
X153482583Y-93397012D01*
X152934576Y-93945019D01*
X152910035Y-93967261D01*
X152883432Y-93986991D01*
X152855023Y-94004018D01*
X152825083Y-94018179D01*
X152793898Y-94029337D01*
X152761770Y-94037385D01*
X152729008Y-94042245D01*
X152695927Y-94043870D01*
X152662846Y-94042245D01*
X152630084Y-94037385D01*
X152597956Y-94029337D01*
X152566771Y-94018179D01*
X152536831Y-94004018D01*
X152508422Y-93986991D01*
X152481819Y-93967261D01*
X152457278Y-93945019D01*
X151979981Y-93467722D01*
X151957739Y-93443181D01*
X151938009Y-93416578D01*
X151920982Y-93388169D01*
X151906821Y-93358229D01*
X151895663Y-93327044D01*
X151887615Y-93294916D01*
X151882755Y-93262154D01*
X151881130Y-93229073D01*
X151882755Y-93195992D01*
X151887615Y-93163230D01*
X151895663Y-93131102D01*
X151906821Y-93099917D01*
X151920982Y-93069977D01*
X151938009Y-93041568D01*
X151957739Y-93014965D01*
X151979981Y-92990424D01*
X152527988Y-92442417D01*
X152552529Y-92420175D01*
X152579132Y-92400445D01*
X152607541Y-92383418D01*
X152637481Y-92369257D01*
X152668666Y-92358099D01*
X152700794Y-92350051D01*
X152733556Y-92345191D01*
X152766637Y-92343566D01*
X152799718Y-92345191D01*
X152799718Y-92345191D01*
G37*
D14*
X152731282Y-93193718D03*
D13*
G36*
X154037154Y-91107755D02*
X154069916Y-91112615D01*
X154102044Y-91120663D01*
X154133229Y-91131821D01*
X154163169Y-91145982D01*
X154191578Y-91163009D01*
X154218181Y-91182739D01*
X154242722Y-91204981D01*
X154720019Y-91682278D01*
X154742261Y-91706819D01*
X154761991Y-91733422D01*
X154779018Y-91761831D01*
X154793179Y-91791771D01*
X154804337Y-91822956D01*
X154812385Y-91855084D01*
X154817245Y-91887846D01*
X154818870Y-91920927D01*
X154817245Y-91954008D01*
X154812385Y-91986770D01*
X154804337Y-92018898D01*
X154793179Y-92050083D01*
X154779018Y-92080023D01*
X154761991Y-92108432D01*
X154742261Y-92135035D01*
X154720019Y-92159576D01*
X154172012Y-92707583D01*
X154147471Y-92729825D01*
X154120868Y-92749555D01*
X154092459Y-92766582D01*
X154062519Y-92780743D01*
X154031334Y-92791901D01*
X153999206Y-92799949D01*
X153966444Y-92804809D01*
X153933363Y-92806434D01*
X153900282Y-92804809D01*
X153867520Y-92799949D01*
X153835392Y-92791901D01*
X153804207Y-92780743D01*
X153774267Y-92766582D01*
X153745858Y-92749555D01*
X153719255Y-92729825D01*
X153694714Y-92707583D01*
X153217417Y-92230286D01*
X153195175Y-92205745D01*
X153175445Y-92179142D01*
X153158418Y-92150733D01*
X153144257Y-92120793D01*
X153133099Y-92089608D01*
X153125051Y-92057480D01*
X153120191Y-92024718D01*
X153118566Y-91991637D01*
X153120191Y-91958556D01*
X153125051Y-91925794D01*
X153133099Y-91893666D01*
X153144257Y-91862481D01*
X153158418Y-91832541D01*
X153175445Y-91804132D01*
X153195175Y-91777529D01*
X153217417Y-91752988D01*
X153765424Y-91204981D01*
X153789965Y-91182739D01*
X153816568Y-91163009D01*
X153844977Y-91145982D01*
X153874917Y-91131821D01*
X153906102Y-91120663D01*
X153938230Y-91112615D01*
X153970992Y-91107755D01*
X154004073Y-91106130D01*
X154037154Y-91107755D01*
X154037154Y-91107755D01*
G37*
D14*
X153968718Y-91956282D03*
D13*
G36*
X152270581Y-97076625D02*
X152303343Y-97081485D01*
X152335471Y-97089533D01*
X152366656Y-97100691D01*
X152396596Y-97114852D01*
X152425005Y-97131879D01*
X152451608Y-97151609D01*
X152476149Y-97173851D01*
X152498391Y-97198392D01*
X152518121Y-97224995D01*
X152535148Y-97253404D01*
X152549309Y-97283344D01*
X152560467Y-97314529D01*
X152568515Y-97346657D01*
X152573375Y-97379419D01*
X152575000Y-97412500D01*
X152575000Y-98087500D01*
X152573375Y-98120581D01*
X152568515Y-98153343D01*
X152560467Y-98185471D01*
X152549309Y-98216656D01*
X152535148Y-98246596D01*
X152518121Y-98275005D01*
X152498391Y-98301608D01*
X152476149Y-98326149D01*
X152451608Y-98348391D01*
X152425005Y-98368121D01*
X152396596Y-98385148D01*
X152366656Y-98399309D01*
X152335471Y-98410467D01*
X152303343Y-98418515D01*
X152270581Y-98423375D01*
X152237500Y-98425000D01*
X151462500Y-98425000D01*
X151429419Y-98423375D01*
X151396657Y-98418515D01*
X151364529Y-98410467D01*
X151333344Y-98399309D01*
X151303404Y-98385148D01*
X151274995Y-98368121D01*
X151248392Y-98348391D01*
X151223851Y-98326149D01*
X151201609Y-98301608D01*
X151181879Y-98275005D01*
X151164852Y-98246596D01*
X151150691Y-98216656D01*
X151139533Y-98185471D01*
X151131485Y-98153343D01*
X151126625Y-98120581D01*
X151125000Y-98087500D01*
X151125000Y-97412500D01*
X151126625Y-97379419D01*
X151131485Y-97346657D01*
X151139533Y-97314529D01*
X151150691Y-97283344D01*
X151164852Y-97253404D01*
X151181879Y-97224995D01*
X151201609Y-97198392D01*
X151223851Y-97173851D01*
X151248392Y-97151609D01*
X151274995Y-97131879D01*
X151303404Y-97114852D01*
X151333344Y-97100691D01*
X151364529Y-97089533D01*
X151396657Y-97081485D01*
X151429419Y-97076625D01*
X151462500Y-97075000D01*
X152237500Y-97075000D01*
X152270581Y-97076625D01*
X152270581Y-97076625D01*
G37*
D14*
X151850000Y-97750000D03*
D13*
G36*
X154020581Y-97076625D02*
X154053343Y-97081485D01*
X154085471Y-97089533D01*
X154116656Y-97100691D01*
X154146596Y-97114852D01*
X154175005Y-97131879D01*
X154201608Y-97151609D01*
X154226149Y-97173851D01*
X154248391Y-97198392D01*
X154268121Y-97224995D01*
X154285148Y-97253404D01*
X154299309Y-97283344D01*
X154310467Y-97314529D01*
X154318515Y-97346657D01*
X154323375Y-97379419D01*
X154325000Y-97412500D01*
X154325000Y-98087500D01*
X154323375Y-98120581D01*
X154318515Y-98153343D01*
X154310467Y-98185471D01*
X154299309Y-98216656D01*
X154285148Y-98246596D01*
X154268121Y-98275005D01*
X154248391Y-98301608D01*
X154226149Y-98326149D01*
X154201608Y-98348391D01*
X154175005Y-98368121D01*
X154146596Y-98385148D01*
X154116656Y-98399309D01*
X154085471Y-98410467D01*
X154053343Y-98418515D01*
X154020581Y-98423375D01*
X153987500Y-98425000D01*
X153212500Y-98425000D01*
X153179419Y-98423375D01*
X153146657Y-98418515D01*
X153114529Y-98410467D01*
X153083344Y-98399309D01*
X153053404Y-98385148D01*
X153024995Y-98368121D01*
X152998392Y-98348391D01*
X152973851Y-98326149D01*
X152951609Y-98301608D01*
X152931879Y-98275005D01*
X152914852Y-98246596D01*
X152900691Y-98216656D01*
X152889533Y-98185471D01*
X152881485Y-98153343D01*
X152876625Y-98120581D01*
X152875000Y-98087500D01*
X152875000Y-97412500D01*
X152876625Y-97379419D01*
X152881485Y-97346657D01*
X152889533Y-97314529D01*
X152900691Y-97283344D01*
X152914852Y-97253404D01*
X152931879Y-97224995D01*
X152951609Y-97198392D01*
X152973851Y-97173851D01*
X152998392Y-97151609D01*
X153024995Y-97131879D01*
X153053404Y-97114852D01*
X153083344Y-97100691D01*
X153114529Y-97089533D01*
X153146657Y-97081485D01*
X153179419Y-97076625D01*
X153212500Y-97075000D01*
X153987500Y-97075000D01*
X154020581Y-97076625D01*
X154020581Y-97076625D01*
G37*
D14*
X153600000Y-97750000D03*
D15*
X157545000Y-92875000D03*
X157545000Y-91375000D03*
X157545000Y-89875000D03*
X157545000Y-88375000D03*
X157545000Y-86875000D03*
X157545000Y-85375000D03*
X157545000Y-83875000D03*
X157545000Y-82375000D03*
X157545000Y-80875000D03*
X140465000Y-92875000D03*
X140465000Y-91375000D03*
X140465000Y-89875000D03*
X140465000Y-88375000D03*
X140455000Y-86875000D03*
X140455000Y-85375000D03*
X140455000Y-83875000D03*
X140455000Y-82375000D03*
X140465000Y-80875000D03*
M02*
