%TF.GenerationSoftware,KiCad,Pcbnew,(5.0.0)*%
%TF.CreationDate,2019-02-01T20:37:48+01:00*%
%TF.ProjectId,HM-LC-Sw1-Pl-DN-R1_OBII,484D2D4C432D5377312D506C2D444E2D,rev?*%
%TF.SameCoordinates,Original*%
%TF.FileFunction,Copper,L2,Bot,Signal*%
%TF.FilePolarity,Positive*%
%FSLAX46Y46*%
G04 Gerber Fmt 4.6, Leading zero omitted, Abs format (unit mm)*
G04 Created by KiCad (PCBNEW (5.0.0)) date 02/01/19 20:37:48*
%MOMM*%
%LPD*%
G01*
G04 APERTURE LIST*
%ADD10R,1.350000X1.350000*%
%ADD11C,1.350000*%
%ADD12C,0.150000*%
%ADD13C,0.950000*%
%ADD14R,1.300000X0.900000*%
%ADD15C,0.800000*%
%ADD16C,0.250000*%
%ADD17C,0.254000*%
G04 APERTURE END LIST*
D10*
X155500000Y-97750000D03*
D11*
X155700000Y-101250000D03*
X141700000Y-101250000D03*
X143700000Y-101250000D03*
X145700000Y-101250000D03*
X147700000Y-101250000D03*
X149700000Y-101250000D03*
X151700000Y-101250000D03*
X153700000Y-101250000D03*
D12*
G36*
X142135779Y-98776144D02*
X142158834Y-98779563D01*
X142181443Y-98785227D01*
X142203387Y-98793079D01*
X142224457Y-98803044D01*
X142244448Y-98815026D01*
X142263168Y-98828910D01*
X142280438Y-98844562D01*
X142296090Y-98861832D01*
X142309974Y-98880552D01*
X142321956Y-98900543D01*
X142331921Y-98921613D01*
X142339773Y-98943557D01*
X142345437Y-98966166D01*
X142348856Y-98989221D01*
X142350000Y-99012500D01*
X142350000Y-99487500D01*
X142348856Y-99510779D01*
X142345437Y-99533834D01*
X142339773Y-99556443D01*
X142331921Y-99578387D01*
X142321956Y-99599457D01*
X142309974Y-99619448D01*
X142296090Y-99638168D01*
X142280438Y-99655438D01*
X142263168Y-99671090D01*
X142244448Y-99684974D01*
X142224457Y-99696956D01*
X142203387Y-99706921D01*
X142181443Y-99714773D01*
X142158834Y-99720437D01*
X142135779Y-99723856D01*
X142112500Y-99725000D01*
X141537500Y-99725000D01*
X141514221Y-99723856D01*
X141491166Y-99720437D01*
X141468557Y-99714773D01*
X141446613Y-99706921D01*
X141425543Y-99696956D01*
X141405552Y-99684974D01*
X141386832Y-99671090D01*
X141369562Y-99655438D01*
X141353910Y-99638168D01*
X141340026Y-99619448D01*
X141328044Y-99599457D01*
X141318079Y-99578387D01*
X141310227Y-99556443D01*
X141304563Y-99533834D01*
X141301144Y-99510779D01*
X141300000Y-99487500D01*
X141300000Y-99012500D01*
X141301144Y-98989221D01*
X141304563Y-98966166D01*
X141310227Y-98943557D01*
X141318079Y-98921613D01*
X141328044Y-98900543D01*
X141340026Y-98880552D01*
X141353910Y-98861832D01*
X141369562Y-98844562D01*
X141386832Y-98828910D01*
X141405552Y-98815026D01*
X141425543Y-98803044D01*
X141446613Y-98793079D01*
X141468557Y-98785227D01*
X141491166Y-98779563D01*
X141514221Y-98776144D01*
X141537500Y-98775000D01*
X142112500Y-98775000D01*
X142135779Y-98776144D01*
X142135779Y-98776144D01*
G37*
D13*
X141825000Y-99250000D03*
D12*
G36*
X143885779Y-98776144D02*
X143908834Y-98779563D01*
X143931443Y-98785227D01*
X143953387Y-98793079D01*
X143974457Y-98803044D01*
X143994448Y-98815026D01*
X144013168Y-98828910D01*
X144030438Y-98844562D01*
X144046090Y-98861832D01*
X144059974Y-98880552D01*
X144071956Y-98900543D01*
X144081921Y-98921613D01*
X144089773Y-98943557D01*
X144095437Y-98966166D01*
X144098856Y-98989221D01*
X144100000Y-99012500D01*
X144100000Y-99487500D01*
X144098856Y-99510779D01*
X144095437Y-99533834D01*
X144089773Y-99556443D01*
X144081921Y-99578387D01*
X144071956Y-99599457D01*
X144059974Y-99619448D01*
X144046090Y-99638168D01*
X144030438Y-99655438D01*
X144013168Y-99671090D01*
X143994448Y-99684974D01*
X143974457Y-99696956D01*
X143953387Y-99706921D01*
X143931443Y-99714773D01*
X143908834Y-99720437D01*
X143885779Y-99723856D01*
X143862500Y-99725000D01*
X143287500Y-99725000D01*
X143264221Y-99723856D01*
X143241166Y-99720437D01*
X143218557Y-99714773D01*
X143196613Y-99706921D01*
X143175543Y-99696956D01*
X143155552Y-99684974D01*
X143136832Y-99671090D01*
X143119562Y-99655438D01*
X143103910Y-99638168D01*
X143090026Y-99619448D01*
X143078044Y-99599457D01*
X143068079Y-99578387D01*
X143060227Y-99556443D01*
X143054563Y-99533834D01*
X143051144Y-99510779D01*
X143050000Y-99487500D01*
X143050000Y-99012500D01*
X143051144Y-98989221D01*
X143054563Y-98966166D01*
X143060227Y-98943557D01*
X143068079Y-98921613D01*
X143078044Y-98900543D01*
X143090026Y-98880552D01*
X143103910Y-98861832D01*
X143119562Y-98844562D01*
X143136832Y-98828910D01*
X143155552Y-98815026D01*
X143175543Y-98803044D01*
X143196613Y-98793079D01*
X143218557Y-98785227D01*
X143241166Y-98779563D01*
X143264221Y-98776144D01*
X143287500Y-98775000D01*
X143862500Y-98775000D01*
X143885779Y-98776144D01*
X143885779Y-98776144D01*
G37*
D13*
X143575000Y-99250000D03*
D14*
X157545000Y-92875000D03*
X157545000Y-91375000D03*
X157545000Y-89875000D03*
X157545000Y-88375000D03*
X157545000Y-86875000D03*
X157545000Y-85375000D03*
X157545000Y-83875000D03*
X157545000Y-82375000D03*
X157545000Y-80875000D03*
X140465000Y-92875000D03*
X140465000Y-91375000D03*
X140465000Y-89875000D03*
X140465000Y-88375000D03*
X140455000Y-86875000D03*
X140455000Y-85375000D03*
X140455000Y-83875000D03*
X140455000Y-82375000D03*
X140465000Y-80875000D03*
D15*
X148700000Y-96850000D03*
X145100000Y-93250000D03*
X148800000Y-93900000D03*
X149500000Y-84600000D03*
X143425000Y-81850000D03*
X154650000Y-90700000D03*
X153600000Y-95400000D03*
X150300000Y-85750000D03*
X146700000Y-88350000D03*
X151900000Y-88400000D03*
X146000000Y-86900000D03*
D16*
X148700000Y-96850000D02*
X145100000Y-93250000D01*
X145100000Y-93250000D02*
X145100000Y-93250000D01*
X150100000Y-95300000D02*
X148800000Y-93900000D01*
X149750000Y-99100000D02*
X147600000Y-101250000D01*
X149750000Y-99100000D02*
X150100000Y-98750000D01*
X150100000Y-98750000D02*
X150100000Y-95300000D01*
X149500000Y-84600000D02*
X149500000Y-84600000D01*
X149500000Y-92850000D02*
X149500000Y-84600000D01*
X153300001Y-96650001D02*
X149500000Y-92850000D01*
X153300001Y-99995407D02*
X153300001Y-99750000D01*
X153600000Y-100295406D02*
X153300001Y-99995407D01*
X153600000Y-101250000D02*
X153600000Y-100295406D01*
X153300001Y-99750000D02*
X153300001Y-96650001D01*
X143700000Y-99375000D02*
X143575000Y-99250000D01*
X143700000Y-101250000D02*
X143700000Y-99375000D01*
X141700000Y-99375000D02*
X141825000Y-99250000D01*
X141700000Y-101250000D02*
X141700000Y-99375000D01*
X150300000Y-85750000D02*
X150300000Y-85750000D01*
X150300000Y-89300000D02*
X150300000Y-85750000D01*
X153600000Y-95400000D02*
X150300000Y-92100000D01*
X150300000Y-92100000D02*
X150300000Y-89300000D01*
X140090000Y-88350000D02*
X140065000Y-88375000D01*
X146700000Y-88350000D02*
X140090000Y-88350000D01*
X152490685Y-88375000D02*
X157945000Y-88375000D01*
X152465685Y-88400000D02*
X152490685Y-88375000D01*
X151900000Y-88400000D02*
X152465685Y-88400000D01*
X146050000Y-86900000D02*
X140055000Y-86875000D01*
X146000000Y-86900000D02*
X146050000Y-86850000D01*
X146050000Y-86850000D02*
X146050000Y-86900000D01*
D17*
G36*
X156418750Y-80748000D02*
X157190001Y-80748000D01*
X157190001Y-81002000D01*
X156418750Y-81002000D01*
X156260000Y-81160750D01*
X156260000Y-81451310D01*
X156331869Y-81624816D01*
X156296843Y-81677235D01*
X156247560Y-81925000D01*
X156247560Y-82825000D01*
X156296843Y-83072765D01*
X156331746Y-83125000D01*
X156296843Y-83177235D01*
X156247560Y-83425000D01*
X156247560Y-84325000D01*
X156296843Y-84572765D01*
X156331746Y-84625000D01*
X156296843Y-84677235D01*
X156247560Y-84925000D01*
X156247560Y-85825000D01*
X156296843Y-86072765D01*
X156331746Y-86125000D01*
X156296843Y-86177235D01*
X156247560Y-86425000D01*
X156247560Y-87325000D01*
X156296843Y-87572765D01*
X156325064Y-87615000D01*
X152578711Y-87615000D01*
X152486280Y-87522569D01*
X152105874Y-87365000D01*
X151694126Y-87365000D01*
X151313720Y-87522569D01*
X151060000Y-87776289D01*
X151060000Y-86453711D01*
X151177431Y-86336280D01*
X151335000Y-85955874D01*
X151335000Y-85544126D01*
X151177431Y-85163720D01*
X150886280Y-84872569D01*
X150535000Y-84727064D01*
X150535000Y-84394126D01*
X150377431Y-84013720D01*
X150086280Y-83722569D01*
X149705874Y-83565000D01*
X149294126Y-83565000D01*
X148913720Y-83722569D01*
X148622569Y-84013720D01*
X148465000Y-84394126D01*
X148465000Y-84805874D01*
X148622569Y-85186280D01*
X148740001Y-85303712D01*
X148740000Y-92775153D01*
X148725112Y-92850000D01*
X148728096Y-92865000D01*
X148594126Y-92865000D01*
X148213720Y-93022569D01*
X147922569Y-93313720D01*
X147765000Y-93694126D01*
X147765000Y-94105874D01*
X147922569Y-94486280D01*
X148213720Y-94777431D01*
X148594126Y-94935000D01*
X148723945Y-94935000D01*
X149340001Y-95598446D01*
X149340001Y-96026290D01*
X149286280Y-95972569D01*
X148905874Y-95815000D01*
X148739802Y-95815000D01*
X146135000Y-93210199D01*
X146135000Y-93044126D01*
X145977431Y-92663720D01*
X145686280Y-92372569D01*
X145305874Y-92215000D01*
X144894126Y-92215000D01*
X144513720Y-92372569D01*
X144222569Y-92663720D01*
X144065000Y-93044126D01*
X144065000Y-93455874D01*
X144222569Y-93836280D01*
X144513720Y-94127431D01*
X144894126Y-94285000D01*
X145060199Y-94285000D01*
X147665000Y-96889802D01*
X147665000Y-97055874D01*
X147822569Y-97436280D01*
X148113720Y-97727431D01*
X148494126Y-97885000D01*
X148905874Y-97885000D01*
X149286280Y-97727431D01*
X149340000Y-97673711D01*
X149340000Y-98435199D01*
X149265530Y-98509669D01*
X149265527Y-98509671D01*
X147835199Y-99940000D01*
X147439425Y-99940000D01*
X146957945Y-100139436D01*
X146700000Y-100397381D01*
X146442055Y-100139436D01*
X145960575Y-99940000D01*
X145439425Y-99940000D01*
X144957945Y-100139436D01*
X144589436Y-100507945D01*
X144566650Y-100562955D01*
X143879605Y-101250000D01*
X144566650Y-101937045D01*
X144589436Y-101992055D01*
X144957945Y-102360564D01*
X145439425Y-102560000D01*
X145960575Y-102560000D01*
X146442055Y-102360564D01*
X146700000Y-102102619D01*
X146957945Y-102360564D01*
X147439425Y-102560000D01*
X147960575Y-102560000D01*
X148442055Y-102360564D01*
X148700000Y-102102619D01*
X148957945Y-102360564D01*
X149439425Y-102560000D01*
X149960575Y-102560000D01*
X150442055Y-102360564D01*
X150700000Y-102102619D01*
X150957945Y-102360564D01*
X151439425Y-102560000D01*
X151960575Y-102560000D01*
X152442055Y-102360564D01*
X152700000Y-102102619D01*
X152957945Y-102360564D01*
X153439425Y-102560000D01*
X153960575Y-102560000D01*
X154442055Y-102360564D01*
X154700000Y-102102619D01*
X154957945Y-102360564D01*
X155439425Y-102560000D01*
X155960575Y-102560000D01*
X156442055Y-102360564D01*
X156810564Y-101992055D01*
X157010000Y-101510575D01*
X157010000Y-100989425D01*
X156810564Y-100507945D01*
X156442055Y-100139436D01*
X155960575Y-99940000D01*
X155439425Y-99940000D01*
X154957945Y-100139436D01*
X154700000Y-100397381D01*
X154442055Y-100139436D01*
X154335048Y-100095112D01*
X154315904Y-99998869D01*
X154315904Y-99998868D01*
X154233062Y-99874888D01*
X154147929Y-99747477D01*
X154084470Y-99705075D01*
X154060001Y-99680606D01*
X154060001Y-97075000D01*
X154177560Y-97075000D01*
X154177560Y-98425000D01*
X154226843Y-98672765D01*
X154367191Y-98882809D01*
X154577235Y-99023157D01*
X154825000Y-99072440D01*
X156175000Y-99072440D01*
X156422765Y-99023157D01*
X156632809Y-98882809D01*
X156773157Y-98672765D01*
X156822440Y-98425000D01*
X156822440Y-97075000D01*
X156773157Y-96827235D01*
X156632809Y-96617191D01*
X156422765Y-96476843D01*
X156175000Y-96427560D01*
X154825000Y-96427560D01*
X154577235Y-96476843D01*
X154367191Y-96617191D01*
X154226843Y-96827235D01*
X154177560Y-97075000D01*
X154060001Y-97075000D01*
X154060001Y-96724848D01*
X154074889Y-96650001D01*
X154060001Y-96575154D01*
X154060001Y-96575149D01*
X154015905Y-96353464D01*
X154013047Y-96349186D01*
X154186280Y-96277431D01*
X154477431Y-95986280D01*
X154635000Y-95605874D01*
X154635000Y-95194126D01*
X154477431Y-94813720D01*
X154186280Y-94522569D01*
X153805874Y-94365000D01*
X153639802Y-94365000D01*
X151060000Y-91785199D01*
X151060000Y-89023711D01*
X151313720Y-89277431D01*
X151694126Y-89435000D01*
X152105874Y-89435000D01*
X152486280Y-89277431D01*
X152619397Y-89144314D01*
X152666220Y-89135000D01*
X156325064Y-89135000D01*
X156296843Y-89177235D01*
X156247560Y-89425000D01*
X156247560Y-90325000D01*
X156296843Y-90572765D01*
X156331746Y-90625000D01*
X156296843Y-90677235D01*
X156247560Y-90925000D01*
X156247560Y-91825000D01*
X156296843Y-92072765D01*
X156331746Y-92125000D01*
X156296843Y-92177235D01*
X156247560Y-92425000D01*
X156247560Y-93325000D01*
X156296843Y-93572765D01*
X156437191Y-93782809D01*
X156647235Y-93923157D01*
X156895000Y-93972440D01*
X157190000Y-93972440D01*
X157190000Y-103290000D01*
X140810000Y-103290000D01*
X140810000Y-102212619D01*
X140957945Y-102360564D01*
X141439425Y-102560000D01*
X141960575Y-102560000D01*
X142442055Y-102360564D01*
X142635472Y-102167147D01*
X142962458Y-102167147D01*
X143021219Y-102400328D01*
X143513100Y-102572522D01*
X144033434Y-102543375D01*
X144378781Y-102400328D01*
X144437542Y-102167147D01*
X143700000Y-101429605D01*
X142962458Y-102167147D01*
X142635472Y-102167147D01*
X142810564Y-101992055D01*
X142833350Y-101937045D01*
X143520395Y-101250000D01*
X143506253Y-101235858D01*
X143685858Y-101056253D01*
X143700000Y-101070395D01*
X144437542Y-100332853D01*
X144423772Y-100278208D01*
X144459698Y-100263327D01*
X144638327Y-100084699D01*
X144735000Y-99851310D01*
X144735000Y-99535750D01*
X144576250Y-99377000D01*
X143702000Y-99377000D01*
X143702000Y-99397000D01*
X143448000Y-99397000D01*
X143448000Y-99377000D01*
X143428000Y-99377000D01*
X143428000Y-99123000D01*
X143448000Y-99123000D01*
X143448000Y-98298750D01*
X143702000Y-98298750D01*
X143702000Y-99123000D01*
X144576250Y-99123000D01*
X144735000Y-98964250D01*
X144735000Y-98648690D01*
X144638327Y-98415301D01*
X144459698Y-98236673D01*
X144226309Y-98140000D01*
X143860750Y-98140000D01*
X143702000Y-98298750D01*
X143448000Y-98298750D01*
X143289250Y-98140000D01*
X142923691Y-98140000D01*
X142690302Y-98236673D01*
X142619540Y-98307435D01*
X142451152Y-98194922D01*
X142112500Y-98127560D01*
X141537500Y-98127560D01*
X141198848Y-98194922D01*
X140911753Y-98386753D01*
X140810000Y-98539037D01*
X140810000Y-93960000D01*
X141241309Y-93960000D01*
X141474698Y-93863327D01*
X141653327Y-93684699D01*
X141750000Y-93451310D01*
X141750000Y-93160750D01*
X141591250Y-93002000D01*
X140810000Y-93002000D01*
X140810000Y-92748000D01*
X141591250Y-92748000D01*
X141750000Y-92589250D01*
X141750000Y-92298690D01*
X141678131Y-92125184D01*
X141713157Y-92072765D01*
X141762440Y-91825000D01*
X141762440Y-90925000D01*
X141713157Y-90677235D01*
X141678254Y-90625000D01*
X141713157Y-90572765D01*
X141762440Y-90325000D01*
X141762440Y-89425000D01*
X141713157Y-89177235D01*
X141678254Y-89125000D01*
X141688277Y-89110000D01*
X145996289Y-89110000D01*
X146113720Y-89227431D01*
X146494126Y-89385000D01*
X146905874Y-89385000D01*
X147286280Y-89227431D01*
X147577431Y-88936280D01*
X147735000Y-88555874D01*
X147735000Y-88144126D01*
X147577431Y-87763720D01*
X147286280Y-87472569D01*
X146942153Y-87330027D01*
X147035000Y-87105874D01*
X147035000Y-86694126D01*
X146877431Y-86313720D01*
X146586280Y-86022569D01*
X146205874Y-85865000D01*
X145794126Y-85865000D01*
X145413720Y-86022569D01*
X145299425Y-86136864D01*
X141669411Y-86121726D01*
X141740000Y-85951310D01*
X141740000Y-85660750D01*
X141581250Y-85502000D01*
X140810000Y-85502000D01*
X140810000Y-85248000D01*
X141581250Y-85248000D01*
X141740000Y-85089250D01*
X141740000Y-84798690D01*
X141668131Y-84625184D01*
X141703157Y-84572765D01*
X141752440Y-84325000D01*
X141752440Y-83425000D01*
X141703157Y-83177235D01*
X141668254Y-83125000D01*
X141703157Y-83072765D01*
X141752440Y-82825000D01*
X141752440Y-81925000D01*
X141703157Y-81677235D01*
X141673254Y-81632483D01*
X141713157Y-81572765D01*
X141762440Y-81325000D01*
X141762440Y-80710000D01*
X156380750Y-80710000D01*
X156418750Y-80748000D01*
X156418750Y-80748000D01*
G37*
X156418750Y-80748000D02*
X157190001Y-80748000D01*
X157190001Y-81002000D01*
X156418750Y-81002000D01*
X156260000Y-81160750D01*
X156260000Y-81451310D01*
X156331869Y-81624816D01*
X156296843Y-81677235D01*
X156247560Y-81925000D01*
X156247560Y-82825000D01*
X156296843Y-83072765D01*
X156331746Y-83125000D01*
X156296843Y-83177235D01*
X156247560Y-83425000D01*
X156247560Y-84325000D01*
X156296843Y-84572765D01*
X156331746Y-84625000D01*
X156296843Y-84677235D01*
X156247560Y-84925000D01*
X156247560Y-85825000D01*
X156296843Y-86072765D01*
X156331746Y-86125000D01*
X156296843Y-86177235D01*
X156247560Y-86425000D01*
X156247560Y-87325000D01*
X156296843Y-87572765D01*
X156325064Y-87615000D01*
X152578711Y-87615000D01*
X152486280Y-87522569D01*
X152105874Y-87365000D01*
X151694126Y-87365000D01*
X151313720Y-87522569D01*
X151060000Y-87776289D01*
X151060000Y-86453711D01*
X151177431Y-86336280D01*
X151335000Y-85955874D01*
X151335000Y-85544126D01*
X151177431Y-85163720D01*
X150886280Y-84872569D01*
X150535000Y-84727064D01*
X150535000Y-84394126D01*
X150377431Y-84013720D01*
X150086280Y-83722569D01*
X149705874Y-83565000D01*
X149294126Y-83565000D01*
X148913720Y-83722569D01*
X148622569Y-84013720D01*
X148465000Y-84394126D01*
X148465000Y-84805874D01*
X148622569Y-85186280D01*
X148740001Y-85303712D01*
X148740000Y-92775153D01*
X148725112Y-92850000D01*
X148728096Y-92865000D01*
X148594126Y-92865000D01*
X148213720Y-93022569D01*
X147922569Y-93313720D01*
X147765000Y-93694126D01*
X147765000Y-94105874D01*
X147922569Y-94486280D01*
X148213720Y-94777431D01*
X148594126Y-94935000D01*
X148723945Y-94935000D01*
X149340001Y-95598446D01*
X149340001Y-96026290D01*
X149286280Y-95972569D01*
X148905874Y-95815000D01*
X148739802Y-95815000D01*
X146135000Y-93210199D01*
X146135000Y-93044126D01*
X145977431Y-92663720D01*
X145686280Y-92372569D01*
X145305874Y-92215000D01*
X144894126Y-92215000D01*
X144513720Y-92372569D01*
X144222569Y-92663720D01*
X144065000Y-93044126D01*
X144065000Y-93455874D01*
X144222569Y-93836280D01*
X144513720Y-94127431D01*
X144894126Y-94285000D01*
X145060199Y-94285000D01*
X147665000Y-96889802D01*
X147665000Y-97055874D01*
X147822569Y-97436280D01*
X148113720Y-97727431D01*
X148494126Y-97885000D01*
X148905874Y-97885000D01*
X149286280Y-97727431D01*
X149340000Y-97673711D01*
X149340000Y-98435199D01*
X149265530Y-98509669D01*
X149265527Y-98509671D01*
X147835199Y-99940000D01*
X147439425Y-99940000D01*
X146957945Y-100139436D01*
X146700000Y-100397381D01*
X146442055Y-100139436D01*
X145960575Y-99940000D01*
X145439425Y-99940000D01*
X144957945Y-100139436D01*
X144589436Y-100507945D01*
X144566650Y-100562955D01*
X143879605Y-101250000D01*
X144566650Y-101937045D01*
X144589436Y-101992055D01*
X144957945Y-102360564D01*
X145439425Y-102560000D01*
X145960575Y-102560000D01*
X146442055Y-102360564D01*
X146700000Y-102102619D01*
X146957945Y-102360564D01*
X147439425Y-102560000D01*
X147960575Y-102560000D01*
X148442055Y-102360564D01*
X148700000Y-102102619D01*
X148957945Y-102360564D01*
X149439425Y-102560000D01*
X149960575Y-102560000D01*
X150442055Y-102360564D01*
X150700000Y-102102619D01*
X150957945Y-102360564D01*
X151439425Y-102560000D01*
X151960575Y-102560000D01*
X152442055Y-102360564D01*
X152700000Y-102102619D01*
X152957945Y-102360564D01*
X153439425Y-102560000D01*
X153960575Y-102560000D01*
X154442055Y-102360564D01*
X154700000Y-102102619D01*
X154957945Y-102360564D01*
X155439425Y-102560000D01*
X155960575Y-102560000D01*
X156442055Y-102360564D01*
X156810564Y-101992055D01*
X157010000Y-101510575D01*
X157010000Y-100989425D01*
X156810564Y-100507945D01*
X156442055Y-100139436D01*
X155960575Y-99940000D01*
X155439425Y-99940000D01*
X154957945Y-100139436D01*
X154700000Y-100397381D01*
X154442055Y-100139436D01*
X154335048Y-100095112D01*
X154315904Y-99998869D01*
X154315904Y-99998868D01*
X154233062Y-99874888D01*
X154147929Y-99747477D01*
X154084470Y-99705075D01*
X154060001Y-99680606D01*
X154060001Y-97075000D01*
X154177560Y-97075000D01*
X154177560Y-98425000D01*
X154226843Y-98672765D01*
X154367191Y-98882809D01*
X154577235Y-99023157D01*
X154825000Y-99072440D01*
X156175000Y-99072440D01*
X156422765Y-99023157D01*
X156632809Y-98882809D01*
X156773157Y-98672765D01*
X156822440Y-98425000D01*
X156822440Y-97075000D01*
X156773157Y-96827235D01*
X156632809Y-96617191D01*
X156422765Y-96476843D01*
X156175000Y-96427560D01*
X154825000Y-96427560D01*
X154577235Y-96476843D01*
X154367191Y-96617191D01*
X154226843Y-96827235D01*
X154177560Y-97075000D01*
X154060001Y-97075000D01*
X154060001Y-96724848D01*
X154074889Y-96650001D01*
X154060001Y-96575154D01*
X154060001Y-96575149D01*
X154015905Y-96353464D01*
X154013047Y-96349186D01*
X154186280Y-96277431D01*
X154477431Y-95986280D01*
X154635000Y-95605874D01*
X154635000Y-95194126D01*
X154477431Y-94813720D01*
X154186280Y-94522569D01*
X153805874Y-94365000D01*
X153639802Y-94365000D01*
X151060000Y-91785199D01*
X151060000Y-89023711D01*
X151313720Y-89277431D01*
X151694126Y-89435000D01*
X152105874Y-89435000D01*
X152486280Y-89277431D01*
X152619397Y-89144314D01*
X152666220Y-89135000D01*
X156325064Y-89135000D01*
X156296843Y-89177235D01*
X156247560Y-89425000D01*
X156247560Y-90325000D01*
X156296843Y-90572765D01*
X156331746Y-90625000D01*
X156296843Y-90677235D01*
X156247560Y-90925000D01*
X156247560Y-91825000D01*
X156296843Y-92072765D01*
X156331746Y-92125000D01*
X156296843Y-92177235D01*
X156247560Y-92425000D01*
X156247560Y-93325000D01*
X156296843Y-93572765D01*
X156437191Y-93782809D01*
X156647235Y-93923157D01*
X156895000Y-93972440D01*
X157190000Y-93972440D01*
X157190000Y-103290000D01*
X140810000Y-103290000D01*
X140810000Y-102212619D01*
X140957945Y-102360564D01*
X141439425Y-102560000D01*
X141960575Y-102560000D01*
X142442055Y-102360564D01*
X142635472Y-102167147D01*
X142962458Y-102167147D01*
X143021219Y-102400328D01*
X143513100Y-102572522D01*
X144033434Y-102543375D01*
X144378781Y-102400328D01*
X144437542Y-102167147D01*
X143700000Y-101429605D01*
X142962458Y-102167147D01*
X142635472Y-102167147D01*
X142810564Y-101992055D01*
X142833350Y-101937045D01*
X143520395Y-101250000D01*
X143506253Y-101235858D01*
X143685858Y-101056253D01*
X143700000Y-101070395D01*
X144437542Y-100332853D01*
X144423772Y-100278208D01*
X144459698Y-100263327D01*
X144638327Y-100084699D01*
X144735000Y-99851310D01*
X144735000Y-99535750D01*
X144576250Y-99377000D01*
X143702000Y-99377000D01*
X143702000Y-99397000D01*
X143448000Y-99397000D01*
X143448000Y-99377000D01*
X143428000Y-99377000D01*
X143428000Y-99123000D01*
X143448000Y-99123000D01*
X143448000Y-98298750D01*
X143702000Y-98298750D01*
X143702000Y-99123000D01*
X144576250Y-99123000D01*
X144735000Y-98964250D01*
X144735000Y-98648690D01*
X144638327Y-98415301D01*
X144459698Y-98236673D01*
X144226309Y-98140000D01*
X143860750Y-98140000D01*
X143702000Y-98298750D01*
X143448000Y-98298750D01*
X143289250Y-98140000D01*
X142923691Y-98140000D01*
X142690302Y-98236673D01*
X142619540Y-98307435D01*
X142451152Y-98194922D01*
X142112500Y-98127560D01*
X141537500Y-98127560D01*
X141198848Y-98194922D01*
X140911753Y-98386753D01*
X140810000Y-98539037D01*
X140810000Y-93960000D01*
X141241309Y-93960000D01*
X141474698Y-93863327D01*
X141653327Y-93684699D01*
X141750000Y-93451310D01*
X141750000Y-93160750D01*
X141591250Y-93002000D01*
X140810000Y-93002000D01*
X140810000Y-92748000D01*
X141591250Y-92748000D01*
X141750000Y-92589250D01*
X141750000Y-92298690D01*
X141678131Y-92125184D01*
X141713157Y-92072765D01*
X141762440Y-91825000D01*
X141762440Y-90925000D01*
X141713157Y-90677235D01*
X141678254Y-90625000D01*
X141713157Y-90572765D01*
X141762440Y-90325000D01*
X141762440Y-89425000D01*
X141713157Y-89177235D01*
X141678254Y-89125000D01*
X141688277Y-89110000D01*
X145996289Y-89110000D01*
X146113720Y-89227431D01*
X146494126Y-89385000D01*
X146905874Y-89385000D01*
X147286280Y-89227431D01*
X147577431Y-88936280D01*
X147735000Y-88555874D01*
X147735000Y-88144126D01*
X147577431Y-87763720D01*
X147286280Y-87472569D01*
X146942153Y-87330027D01*
X147035000Y-87105874D01*
X147035000Y-86694126D01*
X146877431Y-86313720D01*
X146586280Y-86022569D01*
X146205874Y-85865000D01*
X145794126Y-85865000D01*
X145413720Y-86022569D01*
X145299425Y-86136864D01*
X141669411Y-86121726D01*
X141740000Y-85951310D01*
X141740000Y-85660750D01*
X141581250Y-85502000D01*
X140810000Y-85502000D01*
X140810000Y-85248000D01*
X141581250Y-85248000D01*
X141740000Y-85089250D01*
X141740000Y-84798690D01*
X141668131Y-84625184D01*
X141703157Y-84572765D01*
X141752440Y-84325000D01*
X141752440Y-83425000D01*
X141703157Y-83177235D01*
X141668254Y-83125000D01*
X141703157Y-83072765D01*
X141752440Y-82825000D01*
X141752440Y-81925000D01*
X141703157Y-81677235D01*
X141673254Y-81632483D01*
X141713157Y-81572765D01*
X141762440Y-81325000D01*
X141762440Y-80710000D01*
X156380750Y-80710000D01*
X156418750Y-80748000D01*
M02*
