M48
;DRILL file {KiCad (5.0.0)} date 02/01/19 22:06:13
;FORMAT={-:-/ absolute / inch / decimal}
FMAT,2
INCH,TZ
T1C0.0157
T2C0.0197
T3C0.0315
%
G90
G05
M72
T1
X5.6467Y-3.2224
X5.7126Y-3.6713
X5.748Y-3.4213
X5.7756Y-3.4783
X5.8543Y-3.813
X5.8583Y-3.6969
X5.8858Y-3.3307
X5.9173Y-3.376
X5.9803Y-3.4803
X6.0472Y-3.7559
X6.0886Y-3.5709
T2
X5.514Y-3.2431
X5.514Y-3.3022
X5.514Y-3.3612
X5.514Y-3.4203
X5.5144Y-3.1841
X5.5144Y-3.4793
X5.5144Y-3.5384
X5.5144Y-3.5974
X5.5144Y-3.6565
X6.2183Y-3.1841
X6.2183Y-3.2431
X6.2183Y-3.3022
X6.2183Y-3.3612
X6.2183Y-3.4203
X6.2183Y-3.4793
X6.2183Y-3.5384
X6.2183Y-3.5974
X6.2183Y-3.6565
T3
X6.122Y-3.8484
X5.5787Y-3.9862
X5.6575Y-3.9862
X5.7362Y-3.9862
X5.815Y-3.9862
X5.8937Y-3.9862
X5.9724Y-3.9862
X6.0512Y-3.9862
X6.1299Y-3.9862
T0
M30
